<mxfile host="app.diagrams.net" modified="2024-07-09T00:40:56.070Z" agent="Mozilla/5.0 (Windows NT 10.0; Win64; x64) AppleWebKit/537.36 (KHTML, like Gecko) Chrome/126.0.0.0 Safari/537.36" etag="SMbOSla-EOYWjNjbPYvi" version="24.6.4" type="github">
  <diagram name="PÃ¡gina-1" id="L15ot3QiXP_yFXSq__bD">
    <mxGraphModel dx="1434" dy="1915" grid="0" gridSize="10" guides="1" tooltips="1" connect="1" arrows="1" fold="1" page="1" pageScale="1" pageWidth="827" pageHeight="1169" math="0" shadow="0">
      <root>
        <mxCell id="0" />
        <mxCell id="1" parent="0" />
        <mxCell id="3jrl7XaVkJX-t4Dwcv4B-1" value="&lt;h1&gt;c(a|b)*d+&lt;/h1&gt;" style="text;html=1;align=center;verticalAlign=middle;whiteSpace=wrap;rounded=0;" parent="1" vertex="1">
          <mxGeometry x="57" y="24" width="92" height="44" as="geometry" />
        </mxCell>
        <mxCell id="3jrl7XaVkJX-t4Dwcv4B-4" style="edgeStyle=orthogonalEdgeStyle;rounded=0;orthogonalLoop=1;jettySize=auto;html=1;exitX=0.5;exitY=0;exitDx=0;exitDy=0;entryX=0.5;entryY=1;entryDx=0;entryDy=0;" parent="1" source="3jrl7XaVkJX-t4Dwcv4B-2" target="3jrl7XaVkJX-t4Dwcv4B-3" edge="1">
          <mxGeometry relative="1" as="geometry" />
        </mxCell>
        <mxCell id="3jrl7XaVkJX-t4Dwcv4B-2" value="b" style="ellipse;whiteSpace=wrap;html=1;aspect=fixed;" parent="1" vertex="1">
          <mxGeometry x="108" y="-544" width="80" height="80" as="geometry" />
        </mxCell>
        <mxCell id="3jrl7XaVkJX-t4Dwcv4B-9" style="edgeStyle=orthogonalEdgeStyle;rounded=0;orthogonalLoop=1;jettySize=auto;html=1;entryX=0;entryY=0.5;entryDx=0;entryDy=0;exitX=0.5;exitY=0;exitDx=0;exitDy=0;" parent="1" source="3jrl7XaVkJX-t4Dwcv4B-3" target="3jrl7XaVkJX-t4Dwcv4B-8" edge="1">
          <mxGeometry relative="1" as="geometry">
            <Array as="points">
              <mxPoint x="147" y="-694" />
              <mxPoint x="147" y="-920" />
            </Array>
          </mxGeometry>
        </mxCell>
        <mxCell id="3jrl7XaVkJX-t4Dwcv4B-3" value="+" style="ellipse;whiteSpace=wrap;html=1;aspect=fixed;" parent="1" vertex="1">
          <mxGeometry x="108" y="-682" width="80" height="80" as="geometry" />
        </mxCell>
        <mxCell id="3jrl7XaVkJX-t4Dwcv4B-7" style="edgeStyle=orthogonalEdgeStyle;rounded=0;orthogonalLoop=1;jettySize=auto;html=1;exitX=0.5;exitY=0;exitDx=0;exitDy=0;entryX=0.5;entryY=1;entryDx=0;entryDy=0;" parent="1" source="3jrl7XaVkJX-t4Dwcv4B-5" target="3jrl7XaVkJX-t4Dwcv4B-6" edge="1">
          <mxGeometry relative="1" as="geometry" />
        </mxCell>
        <mxCell id="3jrl7XaVkJX-t4Dwcv4B-5" value="a" style="ellipse;whiteSpace=wrap;html=1;aspect=fixed;" parent="1" vertex="1">
          <mxGeometry x="625" y="-546" width="80" height="80" as="geometry" />
        </mxCell>
        <mxCell id="3jrl7XaVkJX-t4Dwcv4B-24" style="edgeStyle=orthogonalEdgeStyle;rounded=0;orthogonalLoop=1;jettySize=auto;html=1;entryX=1;entryY=0.5;entryDx=0;entryDy=0;exitX=0.5;exitY=0;exitDx=0;exitDy=0;" parent="1" source="3jrl7XaVkJX-t4Dwcv4B-6" target="3jrl7XaVkJX-t4Dwcv4B-23" edge="1">
          <mxGeometry relative="1" as="geometry" />
        </mxCell>
        <mxCell id="3jrl7XaVkJX-t4Dwcv4B-6" value="?" style="ellipse;whiteSpace=wrap;html=1;aspect=fixed;" parent="1" vertex="1">
          <mxGeometry x="625" y="-696" width="80" height="80" as="geometry" />
        </mxCell>
        <mxCell id="3jrl7XaVkJX-t4Dwcv4B-26" style="edgeStyle=orthogonalEdgeStyle;rounded=0;orthogonalLoop=1;jettySize=auto;html=1;entryX=0;entryY=0.5;entryDx=0;entryDy=0;exitX=0.5;exitY=0;exitDx=0;exitDy=0;" parent="1" source="3jrl7XaVkJX-t4Dwcv4B-8" target="3jrl7XaVkJX-t4Dwcv4B-19" edge="1">
          <mxGeometry relative="1" as="geometry" />
        </mxCell>
        <mxCell id="3jrl7XaVkJX-t4Dwcv4B-8" value="|" style="ellipse;whiteSpace=wrap;html=1;aspect=fixed;" parent="1" vertex="1">
          <mxGeometry x="343" y="-960" width="80" height="80" as="geometry" />
        </mxCell>
        <mxCell id="3jrl7XaVkJX-t4Dwcv4B-13" style="edgeStyle=orthogonalEdgeStyle;rounded=0;orthogonalLoop=1;jettySize=auto;html=1;entryX=0;entryY=0.5;entryDx=0;entryDy=0;" parent="1" source="3jrl7XaVkJX-t4Dwcv4B-10" target="3jrl7XaVkJX-t4Dwcv4B-12" edge="1">
          <mxGeometry relative="1" as="geometry" />
        </mxCell>
        <mxCell id="3jrl7XaVkJX-t4Dwcv4B-10" value="x" style="ellipse;whiteSpace=wrap;html=1;aspect=fixed;" parent="1" vertex="1">
          <mxGeometry x="265" y="-546" width="80" height="80" as="geometry" />
        </mxCell>
        <mxCell id="3jrl7XaVkJX-t4Dwcv4B-14" style="edgeStyle=orthogonalEdgeStyle;rounded=0;orthogonalLoop=1;jettySize=auto;html=1;entryX=1;entryY=0.5;entryDx=0;entryDy=0;" parent="1" source="3jrl7XaVkJX-t4Dwcv4B-11" target="3jrl7XaVkJX-t4Dwcv4B-12" edge="1">
          <mxGeometry relative="1" as="geometry" />
        </mxCell>
        <mxCell id="3jrl7XaVkJX-t4Dwcv4B-11" value="y" style="ellipse;whiteSpace=wrap;html=1;aspect=fixed;" parent="1" vertex="1">
          <mxGeometry x="395" y="-544" width="80" height="80" as="geometry" />
        </mxCell>
        <mxCell id="3jrl7XaVkJX-t4Dwcv4B-15" style="edgeStyle=orthogonalEdgeStyle;rounded=0;orthogonalLoop=1;jettySize=auto;html=1;exitX=0.5;exitY=0;exitDx=0;exitDy=0;entryX=0;entryY=0.5;entryDx=0;entryDy=0;" parent="1" source="3jrl7XaVkJX-t4Dwcv4B-12" target="3jrl7XaVkJX-t4Dwcv4B-23" edge="1">
          <mxGeometry relative="1" as="geometry" />
        </mxCell>
        <mxCell id="3jrl7XaVkJX-t4Dwcv4B-12" value="." style="ellipse;whiteSpace=wrap;html=1;aspect=fixed;" parent="1" vertex="1">
          <mxGeometry x="325" y="-696" width="80" height="80" as="geometry" />
        </mxCell>
        <mxCell id="3jrl7XaVkJX-t4Dwcv4B-19" value="." style="ellipse;whiteSpace=wrap;html=1;aspect=fixed;" parent="1" vertex="1">
          <mxGeometry x="576" y="-1115" width="80" height="80" as="geometry" />
        </mxCell>
        <mxCell id="3jrl7XaVkJX-t4Dwcv4B-22" style="edgeStyle=orthogonalEdgeStyle;rounded=0;orthogonalLoop=1;jettySize=auto;html=1;exitX=0.5;exitY=0;exitDx=0;exitDy=0;entryX=1;entryY=0.5;entryDx=0;entryDy=0;" parent="1" source="3jrl7XaVkJX-t4Dwcv4B-21" target="3jrl7XaVkJX-t4Dwcv4B-19" edge="1">
          <mxGeometry relative="1" as="geometry" />
        </mxCell>
        <mxCell id="3jrl7XaVkJX-t4Dwcv4B-21" value="#" style="ellipse;whiteSpace=wrap;html=1;aspect=fixed;" parent="1" vertex="1">
          <mxGeometry x="699" y="-960" width="80" height="80" as="geometry" />
        </mxCell>
        <mxCell id="3jrl7XaVkJX-t4Dwcv4B-25" style="edgeStyle=orthogonalEdgeStyle;rounded=0;orthogonalLoop=1;jettySize=auto;html=1;entryX=1;entryY=0.5;entryDx=0;entryDy=0;exitX=0.5;exitY=0;exitDx=0;exitDy=0;" parent="1" source="3jrl7XaVkJX-t4Dwcv4B-23" target="3jrl7XaVkJX-t4Dwcv4B-8" edge="1">
          <mxGeometry relative="1" as="geometry" />
        </mxCell>
        <mxCell id="3jrl7XaVkJX-t4Dwcv4B-23" value="." style="ellipse;whiteSpace=wrap;html=1;aspect=fixed;" parent="1" vertex="1">
          <mxGeometry x="475" y="-824" width="80" height="80" as="geometry" />
        </mxCell>
        <mxCell id="3jrl7XaVkJX-t4Dwcv4B-27" value="&lt;h1&gt;b+|(xy)a?&lt;/h1&gt;" style="text;html=1;align=center;verticalAlign=middle;whiteSpace=wrap;rounded=0;" parent="1" vertex="1">
          <mxGeometry x="38" y="-1143" width="182" height="44" as="geometry" />
        </mxCell>
        <mxCell id="3jrl7XaVkJX-t4Dwcv4B-31" style="edgeStyle=orthogonalEdgeStyle;rounded=0;orthogonalLoop=1;jettySize=auto;html=1;exitX=0.5;exitY=0;exitDx=0;exitDy=0;entryX=0;entryY=0.5;entryDx=0;entryDy=0;" parent="1" source="3jrl7XaVkJX-t4Dwcv4B-28" target="3jrl7XaVkJX-t4Dwcv4B-30" edge="1">
          <mxGeometry relative="1" as="geometry" />
        </mxCell>
        <mxCell id="3jrl7XaVkJX-t4Dwcv4B-28" value="a" style="ellipse;whiteSpace=wrap;html=1;aspect=fixed;" parent="1" vertex="1">
          <mxGeometry x="209" y="648" width="80" height="80" as="geometry" />
        </mxCell>
        <mxCell id="3jrl7XaVkJX-t4Dwcv4B-32" style="edgeStyle=orthogonalEdgeStyle;rounded=0;orthogonalLoop=1;jettySize=auto;html=1;exitX=0.5;exitY=0;exitDx=0;exitDy=0;entryX=1;entryY=0.5;entryDx=0;entryDy=0;" parent="1" source="3jrl7XaVkJX-t4Dwcv4B-29" target="3jrl7XaVkJX-t4Dwcv4B-30" edge="1">
          <mxGeometry relative="1" as="geometry" />
        </mxCell>
        <mxCell id="3jrl7XaVkJX-t4Dwcv4B-29" value="b" style="ellipse;whiteSpace=wrap;html=1;aspect=fixed;" parent="1" vertex="1">
          <mxGeometry x="341" y="648" width="80" height="80" as="geometry" />
        </mxCell>
        <mxCell id="3jrl7XaVkJX-t4Dwcv4B-30" value="|" style="ellipse;whiteSpace=wrap;html=1;aspect=fixed;" parent="1" vertex="1">
          <mxGeometry x="272" y="519" width="80" height="80" as="geometry" />
        </mxCell>
        <mxCell id="3jrl7XaVkJX-t4Dwcv4B-44" style="edgeStyle=orthogonalEdgeStyle;rounded=0;orthogonalLoop=1;jettySize=auto;html=1;entryX=1;entryY=0.5;entryDx=0;entryDy=0;exitX=0.5;exitY=0;exitDx=0;exitDy=0;" parent="1" source="3jrl7XaVkJX-t4Dwcv4B-33" target="3jrl7XaVkJX-t4Dwcv4B-42" edge="1">
          <mxGeometry relative="1" as="geometry" />
        </mxCell>
        <mxCell id="3jrl7XaVkJX-t4Dwcv4B-33" value="+" style="ellipse;whiteSpace=wrap;html=1;aspect=fixed;" parent="1" vertex="1">
          <mxGeometry x="492" y="265" width="80" height="80" as="geometry" />
        </mxCell>
        <mxCell id="3jrl7XaVkJX-t4Dwcv4B-35" style="edgeStyle=orthogonalEdgeStyle;rounded=0;orthogonalLoop=1;jettySize=auto;html=1;exitX=0.5;exitY=0;exitDx=0;exitDy=0;entryX=0.5;entryY=1;entryDx=0;entryDy=0;" parent="1" source="3jrl7XaVkJX-t4Dwcv4B-34" target="3jrl7XaVkJX-t4Dwcv4B-33" edge="1">
          <mxGeometry relative="1" as="geometry" />
        </mxCell>
        <mxCell id="3jrl7XaVkJX-t4Dwcv4B-34" value="d" style="ellipse;whiteSpace=wrap;html=1;aspect=fixed;" parent="1" vertex="1">
          <mxGeometry x="492" y="387" width="80" height="80" as="geometry" />
        </mxCell>
        <mxCell id="3jrl7XaVkJX-t4Dwcv4B-38" style="edgeStyle=orthogonalEdgeStyle;rounded=0;orthogonalLoop=1;jettySize=auto;html=1;exitX=0.5;exitY=0;exitDx=0;exitDy=0;entryX=0;entryY=0.5;entryDx=0;entryDy=0;" parent="1" source="3jrl7XaVkJX-t4Dwcv4B-36" target="3jrl7XaVkJX-t4Dwcv4B-37" edge="1">
          <mxGeometry relative="1" as="geometry" />
        </mxCell>
        <mxCell id="3jrl7XaVkJX-t4Dwcv4B-36" value="c" style="ellipse;whiteSpace=wrap;html=1;aspect=fixed;" parent="1" vertex="1">
          <mxGeometry x="80.5" y="387" width="80" height="80" as="geometry" />
        </mxCell>
        <mxCell id="3jrl7XaVkJX-t4Dwcv4B-43" style="edgeStyle=orthogonalEdgeStyle;rounded=0;orthogonalLoop=1;jettySize=auto;html=1;entryX=0;entryY=0.5;entryDx=0;entryDy=0;exitX=0.5;exitY=0;exitDx=0;exitDy=0;" parent="1" source="3jrl7XaVkJX-t4Dwcv4B-37" target="3jrl7XaVkJX-t4Dwcv4B-42" edge="1">
          <mxGeometry relative="1" as="geometry" />
        </mxCell>
        <mxCell id="3jrl7XaVkJX-t4Dwcv4B-37" value="." style="ellipse;whiteSpace=wrap;html=1;aspect=fixed;" parent="1" vertex="1">
          <mxGeometry x="172" y="265" width="80" height="80" as="geometry" />
        </mxCell>
        <mxCell id="3jrl7XaVkJX-t4Dwcv4B-41" value="" style="edgeStyle=orthogonalEdgeStyle;rounded=0;orthogonalLoop=1;jettySize=auto;html=1;exitX=0.5;exitY=0;exitDx=0;exitDy=0;entryX=0.5;entryY=1;entryDx=0;entryDy=0;" parent="1" source="3jrl7XaVkJX-t4Dwcv4B-30" target="3jrl7XaVkJX-t4Dwcv4B-40" edge="1">
          <mxGeometry relative="1" as="geometry">
            <mxPoint x="312" y="519" as="sourcePoint" />
            <mxPoint x="247" y="317" as="targetPoint" />
          </mxGeometry>
        </mxCell>
        <mxCell id="3jrl7XaVkJX-t4Dwcv4B-226" style="edgeStyle=orthogonalEdgeStyle;rounded=0;orthogonalLoop=1;jettySize=auto;html=1;entryX=1;entryY=0.5;entryDx=0;entryDy=0;exitX=0.5;exitY=0;exitDx=0;exitDy=0;" parent="1" source="3jrl7XaVkJX-t4Dwcv4B-40" target="3jrl7XaVkJX-t4Dwcv4B-37" edge="1">
          <mxGeometry relative="1" as="geometry" />
        </mxCell>
        <mxCell id="3jrl7XaVkJX-t4Dwcv4B-40" value="*" style="ellipse;whiteSpace=wrap;html=1;aspect=fixed;" parent="1" vertex="1">
          <mxGeometry x="272" y="387" width="80" height="80" as="geometry" />
        </mxCell>
        <mxCell id="3jrl7XaVkJX-t4Dwcv4B-46" style="edgeStyle=orthogonalEdgeStyle;rounded=0;orthogonalLoop=1;jettySize=auto;html=1;entryX=0;entryY=0.5;entryDx=0;entryDy=0;exitX=0.5;exitY=0;exitDx=0;exitDy=0;" parent="1" source="3jrl7XaVkJX-t4Dwcv4B-42" target="3jrl7XaVkJX-t4Dwcv4B-45" edge="1">
          <mxGeometry relative="1" as="geometry" />
        </mxCell>
        <mxCell id="3jrl7XaVkJX-t4Dwcv4B-42" value="." style="ellipse;whiteSpace=wrap;html=1;aspect=fixed;" parent="1" vertex="1">
          <mxGeometry x="355" y="157" width="80" height="80" as="geometry" />
        </mxCell>
        <mxCell id="3jrl7XaVkJX-t4Dwcv4B-45" value="." style="ellipse;whiteSpace=wrap;html=1;aspect=fixed;" parent="1" vertex="1">
          <mxGeometry x="537" y="61" width="80" height="80" as="geometry" />
        </mxCell>
        <mxCell id="3jrl7XaVkJX-t4Dwcv4B-48" style="edgeStyle=orthogonalEdgeStyle;rounded=0;orthogonalLoop=1;jettySize=auto;html=1;entryX=1;entryY=0.5;entryDx=0;entryDy=0;exitX=0.5;exitY=0;exitDx=0;exitDy=0;" parent="1" source="3jrl7XaVkJX-t4Dwcv4B-47" target="3jrl7XaVkJX-t4Dwcv4B-45" edge="1">
          <mxGeometry relative="1" as="geometry" />
        </mxCell>
        <mxCell id="3jrl7XaVkJX-t4Dwcv4B-47" value="#" style="ellipse;whiteSpace=wrap;html=1;aspect=fixed;" parent="1" vertex="1">
          <mxGeometry x="661" y="157" width="80" height="80" as="geometry" />
        </mxCell>
        <mxCell id="3jrl7XaVkJX-t4Dwcv4B-49" value="A" style="text;html=1;align=center;verticalAlign=middle;resizable=0;points=[];autosize=1;strokeColor=none;fillColor=none;" parent="1" vertex="1">
          <mxGeometry x="671" y="-716" width="26" height="26" as="geometry" />
        </mxCell>
        <mxCell id="3jrl7XaVkJX-t4Dwcv4B-50" value="2" style="text;html=1;align=center;verticalAlign=middle;resizable=0;points=[];autosize=1;strokeColor=none;fillColor=none;" parent="1" vertex="1">
          <mxGeometry x="438" y="-821" width="25" height="26" as="geometry" />
        </mxCell>
        <mxCell id="3jrl7XaVkJX-t4Dwcv4B-51" value="3, 4" style="text;html=1;align=center;verticalAlign=middle;resizable=0;points=[];autosize=1;strokeColor=none;fillColor=none;" parent="1" vertex="1">
          <mxGeometry x="552" y="-820" width="38" height="26" as="geometry" />
        </mxCell>
        <mxCell id="3jrl7XaVkJX-t4Dwcv4B-52" value="1" style="text;html=1;align=center;verticalAlign=middle;resizable=0;points=[];autosize=1;strokeColor=none;fillColor=none;" parent="1" vertex="1">
          <mxGeometry x="108" y="-711" width="25" height="26" as="geometry" />
        </mxCell>
        <mxCell id="3jrl7XaVkJX-t4Dwcv4B-53" value="3" style="text;html=1;align=center;verticalAlign=middle;resizable=0;points=[];autosize=1;strokeColor=none;fillColor=none;" parent="1" vertex="1">
          <mxGeometry x="401" y="-690" width="25" height="26" as="geometry" />
        </mxCell>
        <mxCell id="3jrl7XaVkJX-t4Dwcv4B-54" value="2" style="text;html=1;align=center;verticalAlign=middle;resizable=0;points=[];autosize=1;strokeColor=none;fillColor=none;" parent="1" vertex="1">
          <mxGeometry x="303" y="-690" width="25" height="26" as="geometry" />
        </mxCell>
        <mxCell id="3jrl7XaVkJX-t4Dwcv4B-55" value="1" style="text;html=1;align=center;verticalAlign=middle;resizable=0;points=[];autosize=1;strokeColor=none;fillColor=none;" parent="1" vertex="1">
          <mxGeometry x="163" y="-711" width="25" height="26" as="geometry" />
        </mxCell>
        <mxCell id="3jrl7XaVkJX-t4Dwcv4B-56" value="1, 2" style="text;html=1;align=center;verticalAlign=middle;resizable=0;points=[];autosize=1;strokeColor=none;fillColor=none;" parent="1" vertex="1">
          <mxGeometry x="314" y="-958" width="38" height="26" as="geometry" />
        </mxCell>
        <mxCell id="3jrl7XaVkJX-t4Dwcv4B-57" value="1, 3, 4" style="text;html=1;align=center;verticalAlign=middle;resizable=0;points=[];autosize=1;strokeColor=none;fillColor=none;" parent="1" vertex="1">
          <mxGeometry x="417" y="-958" width="51" height="26" as="geometry" />
        </mxCell>
        <mxCell id="3jrl7XaVkJX-t4Dwcv4B-58" value="1,2" style="text;html=1;align=center;verticalAlign=middle;resizable=0;points=[];autosize=1;strokeColor=none;fillColor=none;" parent="1" vertex="1">
          <mxGeometry x="534" y="-1108" width="35" height="26" as="geometry" />
        </mxCell>
        <mxCell id="3jrl7XaVkJX-t4Dwcv4B-59" value="5" style="text;html=1;align=center;verticalAlign=middle;resizable=0;points=[];autosize=1;strokeColor=none;fillColor=none;" parent="1" vertex="1">
          <mxGeometry x="661" y="-1108" width="25" height="26" as="geometry" />
        </mxCell>
        <mxCell id="3jrl7XaVkJX-t4Dwcv4B-60" value="" style="childLayout=tableLayout;recursiveResize=0;shadow=0;fillColor=none;strokeColor=#C0C0C0;" parent="1" vertex="1">
          <mxGeometry x="74" y="-360" width="180" height="281" as="geometry" />
        </mxCell>
        <mxCell id="3jrl7XaVkJX-t4Dwcv4B-61" value="" style="shape=tableRow;horizontal=0;startSize=0;swimlaneHead=0;swimlaneBody=0;top=0;left=0;bottom=0;right=0;dropTarget=0;collapsible=0;recursiveResize=0;expand=0;fontStyle=0;fillColor=none;" parent="3jrl7XaVkJX-t4Dwcv4B-60" vertex="1">
          <mxGeometry width="180" height="47" as="geometry" />
        </mxCell>
        <mxCell id="3jrl7XaVkJX-t4Dwcv4B-62" value="NO" style="connectable=0;recursiveResize=0;strokeColor=none;fillColor=none;align=center;whiteSpace=wrap;html=1;" parent="3jrl7XaVkJX-t4Dwcv4B-61" vertex="1">
          <mxGeometry width="60" height="47" as="geometry">
            <mxRectangle width="60" height="47" as="alternateBounds" />
          </mxGeometry>
        </mxCell>
        <mxCell id="3jrl7XaVkJX-t4Dwcv4B-63" value="LETRA" style="connectable=0;recursiveResize=0;strokeColor=none;fillColor=none;align=center;whiteSpace=wrap;html=1;" parent="3jrl7XaVkJX-t4Dwcv4B-61" vertex="1">
          <mxGeometry x="60" width="60" height="47" as="geometry">
            <mxRectangle width="60" height="47" as="alternateBounds" />
          </mxGeometry>
        </mxCell>
        <mxCell id="3jrl7XaVkJX-t4Dwcv4B-64" value="FOLLOW" style="connectable=0;recursiveResize=0;strokeColor=none;fillColor=none;align=center;whiteSpace=wrap;html=1;" parent="3jrl7XaVkJX-t4Dwcv4B-61" vertex="1">
          <mxGeometry x="120" width="60" height="47" as="geometry">
            <mxRectangle width="60" height="47" as="alternateBounds" />
          </mxGeometry>
        </mxCell>
        <mxCell id="3jrl7XaVkJX-t4Dwcv4B-65" style="shape=tableRow;horizontal=0;startSize=0;swimlaneHead=0;swimlaneBody=0;top=0;left=0;bottom=0;right=0;dropTarget=0;collapsible=0;recursiveResize=0;expand=0;fontStyle=0;fillColor=none;" parent="3jrl7XaVkJX-t4Dwcv4B-60" vertex="1">
          <mxGeometry y="47" width="180" height="46" as="geometry" />
        </mxCell>
        <mxCell id="3jrl7XaVkJX-t4Dwcv4B-66" value="1" style="connectable=0;recursiveResize=0;strokeColor=none;fillColor=none;align=center;whiteSpace=wrap;html=1;" parent="3jrl7XaVkJX-t4Dwcv4B-65" vertex="1">
          <mxGeometry width="60" height="46" as="geometry">
            <mxRectangle width="60" height="46" as="alternateBounds" />
          </mxGeometry>
        </mxCell>
        <mxCell id="3jrl7XaVkJX-t4Dwcv4B-67" value="b" style="connectable=0;recursiveResize=0;strokeColor=none;fillColor=none;align=center;whiteSpace=wrap;html=1;" parent="3jrl7XaVkJX-t4Dwcv4B-65" vertex="1">
          <mxGeometry x="60" width="60" height="46" as="geometry">
            <mxRectangle width="60" height="46" as="alternateBounds" />
          </mxGeometry>
        </mxCell>
        <mxCell id="3jrl7XaVkJX-t4Dwcv4B-68" value="1, 5" style="connectable=0;recursiveResize=0;strokeColor=none;fillColor=none;align=center;whiteSpace=wrap;html=1;" parent="3jrl7XaVkJX-t4Dwcv4B-65" vertex="1">
          <mxGeometry x="120" width="60" height="46" as="geometry">
            <mxRectangle width="60" height="46" as="alternateBounds" />
          </mxGeometry>
        </mxCell>
        <mxCell id="3jrl7XaVkJX-t4Dwcv4B-69" style="shape=tableRow;horizontal=0;startSize=0;swimlaneHead=0;swimlaneBody=0;top=0;left=0;bottom=0;right=0;dropTarget=0;collapsible=0;recursiveResize=0;expand=0;fontStyle=0;fillColor=none;" parent="3jrl7XaVkJX-t4Dwcv4B-60" vertex="1">
          <mxGeometry y="93" width="180" height="47" as="geometry" />
        </mxCell>
        <mxCell id="3jrl7XaVkJX-t4Dwcv4B-70" value="2" style="connectable=0;recursiveResize=0;strokeColor=none;fillColor=none;align=center;whiteSpace=wrap;html=1;" parent="3jrl7XaVkJX-t4Dwcv4B-69" vertex="1">
          <mxGeometry width="60" height="47" as="geometry">
            <mxRectangle width="60" height="47" as="alternateBounds" />
          </mxGeometry>
        </mxCell>
        <mxCell id="3jrl7XaVkJX-t4Dwcv4B-71" value="x" style="connectable=0;recursiveResize=0;strokeColor=none;fillColor=none;align=center;whiteSpace=wrap;html=1;" parent="3jrl7XaVkJX-t4Dwcv4B-69" vertex="1">
          <mxGeometry x="60" width="60" height="47" as="geometry">
            <mxRectangle width="60" height="47" as="alternateBounds" />
          </mxGeometry>
        </mxCell>
        <mxCell id="3jrl7XaVkJX-t4Dwcv4B-72" value="3" style="connectable=0;recursiveResize=0;strokeColor=none;fillColor=none;align=center;whiteSpace=wrap;html=1;" parent="3jrl7XaVkJX-t4Dwcv4B-69" vertex="1">
          <mxGeometry x="120" width="60" height="47" as="geometry">
            <mxRectangle width="60" height="47" as="alternateBounds" />
          </mxGeometry>
        </mxCell>
        <mxCell id="3jrl7XaVkJX-t4Dwcv4B-74" style="shape=tableRow;horizontal=0;startSize=0;swimlaneHead=0;swimlaneBody=0;top=0;left=0;bottom=0;right=0;dropTarget=0;collapsible=0;recursiveResize=0;expand=0;fontStyle=0;fillColor=none;" parent="3jrl7XaVkJX-t4Dwcv4B-60" vertex="1">
          <mxGeometry y="140" width="180" height="47" as="geometry" />
        </mxCell>
        <mxCell id="3jrl7XaVkJX-t4Dwcv4B-75" value="3" style="connectable=0;recursiveResize=0;strokeColor=none;fillColor=none;align=center;whiteSpace=wrap;html=1;" parent="3jrl7XaVkJX-t4Dwcv4B-74" vertex="1">
          <mxGeometry width="60" height="47" as="geometry">
            <mxRectangle width="60" height="47" as="alternateBounds" />
          </mxGeometry>
        </mxCell>
        <mxCell id="3jrl7XaVkJX-t4Dwcv4B-76" value="y" style="connectable=0;recursiveResize=0;strokeColor=none;fillColor=none;align=center;whiteSpace=wrap;html=1;" parent="3jrl7XaVkJX-t4Dwcv4B-74" vertex="1">
          <mxGeometry x="60" width="60" height="47" as="geometry">
            <mxRectangle width="60" height="47" as="alternateBounds" />
          </mxGeometry>
        </mxCell>
        <mxCell id="3jrl7XaVkJX-t4Dwcv4B-77" value="4, 5" style="connectable=0;recursiveResize=0;strokeColor=none;fillColor=none;align=center;whiteSpace=wrap;html=1;" parent="3jrl7XaVkJX-t4Dwcv4B-74" vertex="1">
          <mxGeometry x="120" width="60" height="47" as="geometry">
            <mxRectangle width="60" height="47" as="alternateBounds" />
          </mxGeometry>
        </mxCell>
        <mxCell id="3jrl7XaVkJX-t4Dwcv4B-78" style="shape=tableRow;horizontal=0;startSize=0;swimlaneHead=0;swimlaneBody=0;top=0;left=0;bottom=0;right=0;dropTarget=0;collapsible=0;recursiveResize=0;expand=0;fontStyle=0;fillColor=none;" parent="3jrl7XaVkJX-t4Dwcv4B-60" vertex="1">
          <mxGeometry y="187" width="180" height="47" as="geometry" />
        </mxCell>
        <mxCell id="3jrl7XaVkJX-t4Dwcv4B-79" value="4" style="connectable=0;recursiveResize=0;strokeColor=none;fillColor=none;align=center;whiteSpace=wrap;html=1;" parent="3jrl7XaVkJX-t4Dwcv4B-78" vertex="1">
          <mxGeometry width="60" height="47" as="geometry">
            <mxRectangle width="60" height="47" as="alternateBounds" />
          </mxGeometry>
        </mxCell>
        <mxCell id="3jrl7XaVkJX-t4Dwcv4B-80" value="a" style="connectable=0;recursiveResize=0;strokeColor=none;fillColor=none;align=center;whiteSpace=wrap;html=1;" parent="3jrl7XaVkJX-t4Dwcv4B-78" vertex="1">
          <mxGeometry x="60" width="60" height="47" as="geometry">
            <mxRectangle width="60" height="47" as="alternateBounds" />
          </mxGeometry>
        </mxCell>
        <mxCell id="3jrl7XaVkJX-t4Dwcv4B-81" value="5" style="connectable=0;recursiveResize=0;strokeColor=none;fillColor=none;align=center;whiteSpace=wrap;html=1;" parent="3jrl7XaVkJX-t4Dwcv4B-78" vertex="1">
          <mxGeometry x="120" width="60" height="47" as="geometry">
            <mxRectangle width="60" height="47" as="alternateBounds" />
          </mxGeometry>
        </mxCell>
        <mxCell id="3jrl7XaVkJX-t4Dwcv4B-82" style="shape=tableRow;horizontal=0;startSize=0;swimlaneHead=0;swimlaneBody=0;top=0;left=0;bottom=0;right=0;dropTarget=0;collapsible=0;recursiveResize=0;expand=0;fontStyle=0;fillColor=none;" parent="3jrl7XaVkJX-t4Dwcv4B-60" vertex="1">
          <mxGeometry y="234" width="180" height="47" as="geometry" />
        </mxCell>
        <mxCell id="3jrl7XaVkJX-t4Dwcv4B-83" value="5" style="connectable=0;recursiveResize=0;strokeColor=none;fillColor=none;align=center;whiteSpace=wrap;html=1;" parent="3jrl7XaVkJX-t4Dwcv4B-82" vertex="1">
          <mxGeometry width="60" height="47" as="geometry">
            <mxRectangle width="60" height="47" as="alternateBounds" />
          </mxGeometry>
        </mxCell>
        <mxCell id="3jrl7XaVkJX-t4Dwcv4B-84" value="#" style="connectable=0;recursiveResize=0;strokeColor=none;fillColor=none;align=center;whiteSpace=wrap;html=1;" parent="3jrl7XaVkJX-t4Dwcv4B-82" vertex="1">
          <mxGeometry x="60" width="60" height="47" as="geometry">
            <mxRectangle width="60" height="47" as="alternateBounds" />
          </mxGeometry>
        </mxCell>
        <mxCell id="3jrl7XaVkJX-t4Dwcv4B-85" style="connectable=0;recursiveResize=0;strokeColor=none;fillColor=none;align=center;whiteSpace=wrap;html=1;" parent="3jrl7XaVkJX-t4Dwcv4B-82" vertex="1">
          <mxGeometry x="120" width="60" height="47" as="geometry">
            <mxRectangle width="60" height="47" as="alternateBounds" />
          </mxGeometry>
        </mxCell>
        <mxCell id="3jrl7XaVkJX-t4Dwcv4B-73" value="&lt;h3&gt;Tabla Follow POS&lt;/h3&gt;" style="text;html=1;align=center;verticalAlign=middle;resizable=0;points=[];autosize=1;strokeColor=none;fillColor=none;" parent="1" vertex="1">
          <mxGeometry x="64" y="-403" width="136" height="57" as="geometry" />
        </mxCell>
        <mxCell id="3jrl7XaVkJX-t4Dwcv4B-86" value="" style="childLayout=tableLayout;recursiveResize=0;shadow=0;fillColor=none;strokeColor=#C0C0C0;" parent="1" vertex="1">
          <mxGeometry x="443" y="-360" width="360" height="281" as="geometry" />
        </mxCell>
        <mxCell id="3jrl7XaVkJX-t4Dwcv4B-87" value="" style="shape=tableRow;horizontal=0;startSize=0;swimlaneHead=0;swimlaneBody=0;top=0;left=0;bottom=0;right=0;dropTarget=0;collapsible=0;recursiveResize=0;expand=0;fontStyle=0;fillColor=none;" parent="3jrl7XaVkJX-t4Dwcv4B-86" vertex="1">
          <mxGeometry width="360" height="47" as="geometry" />
        </mxCell>
        <mxCell id="3jrl7XaVkJX-t4Dwcv4B-88" value="" style="connectable=0;recursiveResize=0;strokeColor=none;fillColor=none;align=center;whiteSpace=wrap;html=1;" parent="3jrl7XaVkJX-t4Dwcv4B-87" vertex="1">
          <mxGeometry width="60" height="47" as="geometry">
            <mxRectangle width="60" height="47" as="alternateBounds" />
          </mxGeometry>
        </mxCell>
        <mxCell id="3jrl7XaVkJX-t4Dwcv4B-89" value="b" style="connectable=0;recursiveResize=0;strokeColor=none;fillColor=none;align=center;whiteSpace=wrap;html=1;" parent="3jrl7XaVkJX-t4Dwcv4B-87" vertex="1">
          <mxGeometry x="60" width="60" height="47" as="geometry">
            <mxRectangle width="60" height="47" as="alternateBounds" />
          </mxGeometry>
        </mxCell>
        <mxCell id="3jrl7XaVkJX-t4Dwcv4B-90" value="x" style="connectable=0;recursiveResize=0;strokeColor=none;fillColor=none;align=center;whiteSpace=wrap;html=1;" parent="3jrl7XaVkJX-t4Dwcv4B-87" vertex="1">
          <mxGeometry x="120" width="60" height="47" as="geometry">
            <mxRectangle width="60" height="47" as="alternateBounds" />
          </mxGeometry>
        </mxCell>
        <mxCell id="3jrl7XaVkJX-t4Dwcv4B-112" value="y" style="connectable=0;recursiveResize=0;strokeColor=none;fillColor=none;align=center;whiteSpace=wrap;html=1;" parent="3jrl7XaVkJX-t4Dwcv4B-87" vertex="1">
          <mxGeometry x="180" width="60" height="47" as="geometry">
            <mxRectangle width="60" height="47" as="alternateBounds" />
          </mxGeometry>
        </mxCell>
        <mxCell id="3jrl7XaVkJX-t4Dwcv4B-118" value="a" style="connectable=0;recursiveResize=0;strokeColor=none;fillColor=none;align=center;whiteSpace=wrap;html=1;" parent="3jrl7XaVkJX-t4Dwcv4B-87" vertex="1">
          <mxGeometry x="240" width="60" height="47" as="geometry">
            <mxRectangle width="60" height="47" as="alternateBounds" />
          </mxGeometry>
        </mxCell>
        <mxCell id="3jrl7XaVkJX-t4Dwcv4B-124" value="ACE" style="connectable=0;recursiveResize=0;strokeColor=none;fillColor=none;align=center;whiteSpace=wrap;html=1;" parent="3jrl7XaVkJX-t4Dwcv4B-87" vertex="1">
          <mxGeometry x="300" width="60" height="47" as="geometry">
            <mxRectangle width="60" height="47" as="alternateBounds" />
          </mxGeometry>
        </mxCell>
        <mxCell id="3jrl7XaVkJX-t4Dwcv4B-91" style="shape=tableRow;horizontal=0;startSize=0;swimlaneHead=0;swimlaneBody=0;top=0;left=0;bottom=0;right=0;dropTarget=0;collapsible=0;recursiveResize=0;expand=0;fontStyle=0;fillColor=none;" parent="3jrl7XaVkJX-t4Dwcv4B-86" vertex="1">
          <mxGeometry y="47" width="360" height="46" as="geometry" />
        </mxCell>
        <mxCell id="3jrl7XaVkJX-t4Dwcv4B-92" value="x0 = {1,2}" style="connectable=0;recursiveResize=0;strokeColor=none;fillColor=none;align=center;whiteSpace=wrap;html=1;" parent="3jrl7XaVkJX-t4Dwcv4B-91" vertex="1">
          <mxGeometry width="60" height="46" as="geometry">
            <mxRectangle width="60" height="46" as="alternateBounds" />
          </mxGeometry>
        </mxCell>
        <mxCell id="3jrl7XaVkJX-t4Dwcv4B-93" value="x1" style="connectable=0;recursiveResize=0;strokeColor=none;fillColor=none;align=center;whiteSpace=wrap;html=1;" parent="3jrl7XaVkJX-t4Dwcv4B-91" vertex="1">
          <mxGeometry x="60" width="60" height="46" as="geometry">
            <mxRectangle width="60" height="46" as="alternateBounds" />
          </mxGeometry>
        </mxCell>
        <mxCell id="3jrl7XaVkJX-t4Dwcv4B-94" value="x2" style="connectable=0;recursiveResize=0;strokeColor=none;fillColor=none;align=center;whiteSpace=wrap;html=1;" parent="3jrl7XaVkJX-t4Dwcv4B-91" vertex="1">
          <mxGeometry x="120" width="60" height="46" as="geometry">
            <mxRectangle width="60" height="46" as="alternateBounds" />
          </mxGeometry>
        </mxCell>
        <mxCell id="3jrl7XaVkJX-t4Dwcv4B-113" style="connectable=0;recursiveResize=0;strokeColor=none;fillColor=none;align=center;whiteSpace=wrap;html=1;" parent="3jrl7XaVkJX-t4Dwcv4B-91" vertex="1">
          <mxGeometry x="180" width="60" height="46" as="geometry">
            <mxRectangle width="60" height="46" as="alternateBounds" />
          </mxGeometry>
        </mxCell>
        <mxCell id="3jrl7XaVkJX-t4Dwcv4B-119" style="connectable=0;recursiveResize=0;strokeColor=none;fillColor=none;align=center;whiteSpace=wrap;html=1;" parent="3jrl7XaVkJX-t4Dwcv4B-91" vertex="1">
          <mxGeometry x="240" width="60" height="46" as="geometry">
            <mxRectangle width="60" height="46" as="alternateBounds" />
          </mxGeometry>
        </mxCell>
        <mxCell id="3jrl7XaVkJX-t4Dwcv4B-125" style="connectable=0;recursiveResize=0;strokeColor=none;fillColor=none;align=center;whiteSpace=wrap;html=1;" parent="3jrl7XaVkJX-t4Dwcv4B-91" vertex="1">
          <mxGeometry x="300" width="60" height="46" as="geometry">
            <mxRectangle width="60" height="46" as="alternateBounds" />
          </mxGeometry>
        </mxCell>
        <mxCell id="3jrl7XaVkJX-t4Dwcv4B-95" style="shape=tableRow;horizontal=0;startSize=0;swimlaneHead=0;swimlaneBody=0;top=0;left=0;bottom=0;right=0;dropTarget=0;collapsible=0;recursiveResize=0;expand=0;fontStyle=0;fillColor=none;" parent="3jrl7XaVkJX-t4Dwcv4B-86" vertex="1">
          <mxGeometry y="93" width="360" height="47" as="geometry" />
        </mxCell>
        <mxCell id="3jrl7XaVkJX-t4Dwcv4B-96" value="x1 = {1,5}" style="connectable=0;recursiveResize=0;strokeColor=none;fillColor=none;align=center;whiteSpace=wrap;html=1;" parent="3jrl7XaVkJX-t4Dwcv4B-95" vertex="1">
          <mxGeometry width="60" height="47" as="geometry">
            <mxRectangle width="60" height="47" as="alternateBounds" />
          </mxGeometry>
        </mxCell>
        <mxCell id="3jrl7XaVkJX-t4Dwcv4B-97" value="x1" style="connectable=0;recursiveResize=0;strokeColor=none;fillColor=none;align=center;whiteSpace=wrap;html=1;" parent="3jrl7XaVkJX-t4Dwcv4B-95" vertex="1">
          <mxGeometry x="60" width="60" height="47" as="geometry">
            <mxRectangle width="60" height="47" as="alternateBounds" />
          </mxGeometry>
        </mxCell>
        <mxCell id="3jrl7XaVkJX-t4Dwcv4B-98" value="" style="connectable=0;recursiveResize=0;strokeColor=none;fillColor=none;align=center;whiteSpace=wrap;html=1;" parent="3jrl7XaVkJX-t4Dwcv4B-95" vertex="1">
          <mxGeometry x="120" width="60" height="47" as="geometry">
            <mxRectangle width="60" height="47" as="alternateBounds" />
          </mxGeometry>
        </mxCell>
        <mxCell id="3jrl7XaVkJX-t4Dwcv4B-114" style="connectable=0;recursiveResize=0;strokeColor=none;fillColor=none;align=center;whiteSpace=wrap;html=1;" parent="3jrl7XaVkJX-t4Dwcv4B-95" vertex="1">
          <mxGeometry x="180" width="60" height="47" as="geometry">
            <mxRectangle width="60" height="47" as="alternateBounds" />
          </mxGeometry>
        </mxCell>
        <mxCell id="3jrl7XaVkJX-t4Dwcv4B-120" style="connectable=0;recursiveResize=0;strokeColor=none;fillColor=none;align=center;whiteSpace=wrap;html=1;" parent="3jrl7XaVkJX-t4Dwcv4B-95" vertex="1">
          <mxGeometry x="240" width="60" height="47" as="geometry">
            <mxRectangle width="60" height="47" as="alternateBounds" />
          </mxGeometry>
        </mxCell>
        <mxCell id="3jrl7XaVkJX-t4Dwcv4B-126" value="si" style="connectable=0;recursiveResize=0;strokeColor=none;fillColor=none;align=center;whiteSpace=wrap;html=1;" parent="3jrl7XaVkJX-t4Dwcv4B-95" vertex="1">
          <mxGeometry x="300" width="60" height="47" as="geometry">
            <mxRectangle width="60" height="47" as="alternateBounds" />
          </mxGeometry>
        </mxCell>
        <mxCell id="3jrl7XaVkJX-t4Dwcv4B-99" style="shape=tableRow;horizontal=0;startSize=0;swimlaneHead=0;swimlaneBody=0;top=0;left=0;bottom=0;right=0;dropTarget=0;collapsible=0;recursiveResize=0;expand=0;fontStyle=0;fillColor=none;" parent="3jrl7XaVkJX-t4Dwcv4B-86" vertex="1">
          <mxGeometry y="140" width="360" height="47" as="geometry" />
        </mxCell>
        <mxCell id="3jrl7XaVkJX-t4Dwcv4B-100" value="x2 = {3}" style="connectable=0;recursiveResize=0;strokeColor=none;fillColor=none;align=center;whiteSpace=wrap;html=1;" parent="3jrl7XaVkJX-t4Dwcv4B-99" vertex="1">
          <mxGeometry width="60" height="47" as="geometry">
            <mxRectangle width="60" height="47" as="alternateBounds" />
          </mxGeometry>
        </mxCell>
        <mxCell id="3jrl7XaVkJX-t4Dwcv4B-101" value="" style="connectable=0;recursiveResize=0;strokeColor=none;fillColor=none;align=center;whiteSpace=wrap;html=1;" parent="3jrl7XaVkJX-t4Dwcv4B-99" vertex="1">
          <mxGeometry x="60" width="60" height="47" as="geometry">
            <mxRectangle width="60" height="47" as="alternateBounds" />
          </mxGeometry>
        </mxCell>
        <mxCell id="3jrl7XaVkJX-t4Dwcv4B-102" value="" style="connectable=0;recursiveResize=0;strokeColor=none;fillColor=none;align=center;whiteSpace=wrap;html=1;" parent="3jrl7XaVkJX-t4Dwcv4B-99" vertex="1">
          <mxGeometry x="120" width="60" height="47" as="geometry">
            <mxRectangle width="60" height="47" as="alternateBounds" />
          </mxGeometry>
        </mxCell>
        <mxCell id="3jrl7XaVkJX-t4Dwcv4B-115" value="x3" style="connectable=0;recursiveResize=0;strokeColor=none;fillColor=none;align=center;whiteSpace=wrap;html=1;" parent="3jrl7XaVkJX-t4Dwcv4B-99" vertex="1">
          <mxGeometry x="180" width="60" height="47" as="geometry">
            <mxRectangle width="60" height="47" as="alternateBounds" />
          </mxGeometry>
        </mxCell>
        <mxCell id="3jrl7XaVkJX-t4Dwcv4B-121" style="connectable=0;recursiveResize=0;strokeColor=none;fillColor=none;align=center;whiteSpace=wrap;html=1;" parent="3jrl7XaVkJX-t4Dwcv4B-99" vertex="1">
          <mxGeometry x="240" width="60" height="47" as="geometry">
            <mxRectangle width="60" height="47" as="alternateBounds" />
          </mxGeometry>
        </mxCell>
        <mxCell id="3jrl7XaVkJX-t4Dwcv4B-127" style="connectable=0;recursiveResize=0;strokeColor=none;fillColor=none;align=center;whiteSpace=wrap;html=1;" parent="3jrl7XaVkJX-t4Dwcv4B-99" vertex="1">
          <mxGeometry x="300" width="60" height="47" as="geometry">
            <mxRectangle width="60" height="47" as="alternateBounds" />
          </mxGeometry>
        </mxCell>
        <mxCell id="3jrl7XaVkJX-t4Dwcv4B-103" style="shape=tableRow;horizontal=0;startSize=0;swimlaneHead=0;swimlaneBody=0;top=0;left=0;bottom=0;right=0;dropTarget=0;collapsible=0;recursiveResize=0;expand=0;fontStyle=0;fillColor=none;" parent="3jrl7XaVkJX-t4Dwcv4B-86" vertex="1">
          <mxGeometry y="187" width="360" height="47" as="geometry" />
        </mxCell>
        <mxCell id="3jrl7XaVkJX-t4Dwcv4B-104" value="x3 = {4,5}" style="connectable=0;recursiveResize=0;strokeColor=none;fillColor=none;align=center;whiteSpace=wrap;html=1;" parent="3jrl7XaVkJX-t4Dwcv4B-103" vertex="1">
          <mxGeometry width="60" height="47" as="geometry">
            <mxRectangle width="60" height="47" as="alternateBounds" />
          </mxGeometry>
        </mxCell>
        <mxCell id="3jrl7XaVkJX-t4Dwcv4B-105" value="" style="connectable=0;recursiveResize=0;strokeColor=none;fillColor=none;align=center;whiteSpace=wrap;html=1;" parent="3jrl7XaVkJX-t4Dwcv4B-103" vertex="1">
          <mxGeometry x="60" width="60" height="47" as="geometry">
            <mxRectangle width="60" height="47" as="alternateBounds" />
          </mxGeometry>
        </mxCell>
        <mxCell id="3jrl7XaVkJX-t4Dwcv4B-106" value="" style="connectable=0;recursiveResize=0;strokeColor=none;fillColor=none;align=center;whiteSpace=wrap;html=1;" parent="3jrl7XaVkJX-t4Dwcv4B-103" vertex="1">
          <mxGeometry x="120" width="60" height="47" as="geometry">
            <mxRectangle width="60" height="47" as="alternateBounds" />
          </mxGeometry>
        </mxCell>
        <mxCell id="3jrl7XaVkJX-t4Dwcv4B-116" style="connectable=0;recursiveResize=0;strokeColor=none;fillColor=none;align=center;whiteSpace=wrap;html=1;" parent="3jrl7XaVkJX-t4Dwcv4B-103" vertex="1">
          <mxGeometry x="180" width="60" height="47" as="geometry">
            <mxRectangle width="60" height="47" as="alternateBounds" />
          </mxGeometry>
        </mxCell>
        <mxCell id="3jrl7XaVkJX-t4Dwcv4B-122" style="connectable=0;recursiveResize=0;strokeColor=none;fillColor=none;align=center;whiteSpace=wrap;html=1;" parent="3jrl7XaVkJX-t4Dwcv4B-103" vertex="1">
          <mxGeometry x="240" width="60" height="47" as="geometry">
            <mxRectangle width="60" height="47" as="alternateBounds" />
          </mxGeometry>
        </mxCell>
        <mxCell id="3jrl7XaVkJX-t4Dwcv4B-128" value="si" style="connectable=0;recursiveResize=0;strokeColor=none;fillColor=none;align=center;whiteSpace=wrap;html=1;" parent="3jrl7XaVkJX-t4Dwcv4B-103" vertex="1">
          <mxGeometry x="300" width="60" height="47" as="geometry">
            <mxRectangle width="60" height="47" as="alternateBounds" />
          </mxGeometry>
        </mxCell>
        <mxCell id="3jrl7XaVkJX-t4Dwcv4B-107" style="shape=tableRow;horizontal=0;startSize=0;swimlaneHead=0;swimlaneBody=0;top=0;left=0;bottom=0;right=0;dropTarget=0;collapsible=0;recursiveResize=0;expand=0;fontStyle=0;fillColor=none;" parent="3jrl7XaVkJX-t4Dwcv4B-86" vertex="1">
          <mxGeometry y="234" width="360" height="47" as="geometry" />
        </mxCell>
        <mxCell id="3jrl7XaVkJX-t4Dwcv4B-108" value="x4 = {5}" style="connectable=0;recursiveResize=0;strokeColor=none;fillColor=none;align=center;whiteSpace=wrap;html=1;" parent="3jrl7XaVkJX-t4Dwcv4B-107" vertex="1">
          <mxGeometry width="60" height="47" as="geometry">
            <mxRectangle width="60" height="47" as="alternateBounds" />
          </mxGeometry>
        </mxCell>
        <mxCell id="3jrl7XaVkJX-t4Dwcv4B-109" value="" style="connectable=0;recursiveResize=0;strokeColor=none;fillColor=none;align=center;whiteSpace=wrap;html=1;" parent="3jrl7XaVkJX-t4Dwcv4B-107" vertex="1">
          <mxGeometry x="60" width="60" height="47" as="geometry">
            <mxRectangle width="60" height="47" as="alternateBounds" />
          </mxGeometry>
        </mxCell>
        <mxCell id="3jrl7XaVkJX-t4Dwcv4B-110" style="connectable=0;recursiveResize=0;strokeColor=none;fillColor=none;align=center;whiteSpace=wrap;html=1;" parent="3jrl7XaVkJX-t4Dwcv4B-107" vertex="1">
          <mxGeometry x="120" width="60" height="47" as="geometry">
            <mxRectangle width="60" height="47" as="alternateBounds" />
          </mxGeometry>
        </mxCell>
        <mxCell id="3jrl7XaVkJX-t4Dwcv4B-117" style="connectable=0;recursiveResize=0;strokeColor=none;fillColor=none;align=center;whiteSpace=wrap;html=1;" parent="3jrl7XaVkJX-t4Dwcv4B-107" vertex="1">
          <mxGeometry x="180" width="60" height="47" as="geometry">
            <mxRectangle width="60" height="47" as="alternateBounds" />
          </mxGeometry>
        </mxCell>
        <mxCell id="3jrl7XaVkJX-t4Dwcv4B-123" style="connectable=0;recursiveResize=0;strokeColor=none;fillColor=none;align=center;whiteSpace=wrap;html=1;" parent="3jrl7XaVkJX-t4Dwcv4B-107" vertex="1">
          <mxGeometry x="240" width="60" height="47" as="geometry">
            <mxRectangle width="60" height="47" as="alternateBounds" />
          </mxGeometry>
        </mxCell>
        <mxCell id="3jrl7XaVkJX-t4Dwcv4B-129" value="si" style="connectable=0;recursiveResize=0;strokeColor=none;fillColor=none;align=center;whiteSpace=wrap;html=1;" parent="3jrl7XaVkJX-t4Dwcv4B-107" vertex="1">
          <mxGeometry x="300" width="60" height="47" as="geometry">
            <mxRectangle width="60" height="47" as="alternateBounds" />
          </mxGeometry>
        </mxCell>
        <mxCell id="3jrl7XaVkJX-t4Dwcv4B-111" value="&lt;h3&gt;Tabla Trancisiones&lt;/h3&gt;" style="text;html=1;align=center;verticalAlign=middle;resizable=0;points=[];autosize=1;strokeColor=none;fillColor=none;" parent="1" vertex="1">
          <mxGeometry x="435" y="-403" width="143" height="57" as="geometry" />
        </mxCell>
        <mxCell id="3jrl7XaVkJX-t4Dwcv4B-200" value="" style="childLayout=tableLayout;recursiveResize=0;shadow=0;fillColor=none;strokeColor=#C0C0C0;" parent="1" vertex="1">
          <mxGeometry x="57" y="816" width="180" height="281" as="geometry" />
        </mxCell>
        <mxCell id="3jrl7XaVkJX-t4Dwcv4B-201" value="" style="shape=tableRow;horizontal=0;startSize=0;swimlaneHead=0;swimlaneBody=0;top=0;left=0;bottom=0;right=0;dropTarget=0;collapsible=0;recursiveResize=0;expand=0;fontStyle=0;fillColor=none;" parent="3jrl7XaVkJX-t4Dwcv4B-200" vertex="1">
          <mxGeometry width="180" height="47" as="geometry" />
        </mxCell>
        <mxCell id="3jrl7XaVkJX-t4Dwcv4B-202" value="NO" style="connectable=0;recursiveResize=0;strokeColor=none;fillColor=none;align=center;whiteSpace=wrap;html=1;" parent="3jrl7XaVkJX-t4Dwcv4B-201" vertex="1">
          <mxGeometry width="60" height="47" as="geometry">
            <mxRectangle width="60" height="47" as="alternateBounds" />
          </mxGeometry>
        </mxCell>
        <mxCell id="3jrl7XaVkJX-t4Dwcv4B-203" value="LETRA" style="connectable=0;recursiveResize=0;strokeColor=none;fillColor=none;align=center;whiteSpace=wrap;html=1;" parent="3jrl7XaVkJX-t4Dwcv4B-201" vertex="1">
          <mxGeometry x="60" width="60" height="47" as="geometry">
            <mxRectangle width="60" height="47" as="alternateBounds" />
          </mxGeometry>
        </mxCell>
        <mxCell id="3jrl7XaVkJX-t4Dwcv4B-204" value="FOLLOW" style="connectable=0;recursiveResize=0;strokeColor=none;fillColor=none;align=center;whiteSpace=wrap;html=1;" parent="3jrl7XaVkJX-t4Dwcv4B-201" vertex="1">
          <mxGeometry x="120" width="60" height="47" as="geometry">
            <mxRectangle width="60" height="47" as="alternateBounds" />
          </mxGeometry>
        </mxCell>
        <mxCell id="3jrl7XaVkJX-t4Dwcv4B-205" style="shape=tableRow;horizontal=0;startSize=0;swimlaneHead=0;swimlaneBody=0;top=0;left=0;bottom=0;right=0;dropTarget=0;collapsible=0;recursiveResize=0;expand=0;fontStyle=0;fillColor=none;" parent="3jrl7XaVkJX-t4Dwcv4B-200" vertex="1">
          <mxGeometry y="47" width="180" height="46" as="geometry" />
        </mxCell>
        <mxCell id="3jrl7XaVkJX-t4Dwcv4B-206" value="1" style="connectable=0;recursiveResize=0;strokeColor=none;fillColor=none;align=center;whiteSpace=wrap;html=1;" parent="3jrl7XaVkJX-t4Dwcv4B-205" vertex="1">
          <mxGeometry width="60" height="46" as="geometry">
            <mxRectangle width="60" height="46" as="alternateBounds" />
          </mxGeometry>
        </mxCell>
        <mxCell id="3jrl7XaVkJX-t4Dwcv4B-207" value="c" style="connectable=0;recursiveResize=0;strokeColor=none;fillColor=none;align=center;whiteSpace=wrap;html=1;" parent="3jrl7XaVkJX-t4Dwcv4B-205" vertex="1">
          <mxGeometry x="60" width="60" height="46" as="geometry">
            <mxRectangle width="60" height="46" as="alternateBounds" />
          </mxGeometry>
        </mxCell>
        <mxCell id="3jrl7XaVkJX-t4Dwcv4B-208" value="2, 3, 4" style="connectable=0;recursiveResize=0;strokeColor=none;fillColor=none;align=center;whiteSpace=wrap;html=1;" parent="3jrl7XaVkJX-t4Dwcv4B-205" vertex="1">
          <mxGeometry x="120" width="60" height="46" as="geometry">
            <mxRectangle width="60" height="46" as="alternateBounds" />
          </mxGeometry>
        </mxCell>
        <mxCell id="3jrl7XaVkJX-t4Dwcv4B-209" style="shape=tableRow;horizontal=0;startSize=0;swimlaneHead=0;swimlaneBody=0;top=0;left=0;bottom=0;right=0;dropTarget=0;collapsible=0;recursiveResize=0;expand=0;fontStyle=0;fillColor=none;" parent="3jrl7XaVkJX-t4Dwcv4B-200" vertex="1">
          <mxGeometry y="93" width="180" height="47" as="geometry" />
        </mxCell>
        <mxCell id="3jrl7XaVkJX-t4Dwcv4B-210" value="2" style="connectable=0;recursiveResize=0;strokeColor=none;fillColor=none;align=center;whiteSpace=wrap;html=1;" parent="3jrl7XaVkJX-t4Dwcv4B-209" vertex="1">
          <mxGeometry width="60" height="47" as="geometry">
            <mxRectangle width="60" height="47" as="alternateBounds" />
          </mxGeometry>
        </mxCell>
        <mxCell id="3jrl7XaVkJX-t4Dwcv4B-211" value="a" style="connectable=0;recursiveResize=0;strokeColor=none;fillColor=none;align=center;whiteSpace=wrap;html=1;" parent="3jrl7XaVkJX-t4Dwcv4B-209" vertex="1">
          <mxGeometry x="60" width="60" height="47" as="geometry">
            <mxRectangle width="60" height="47" as="alternateBounds" />
          </mxGeometry>
        </mxCell>
        <mxCell id="3jrl7XaVkJX-t4Dwcv4B-212" value="2,3,4" style="connectable=0;recursiveResize=0;strokeColor=none;fillColor=none;align=center;whiteSpace=wrap;html=1;" parent="3jrl7XaVkJX-t4Dwcv4B-209" vertex="1">
          <mxGeometry x="120" width="60" height="47" as="geometry">
            <mxRectangle width="60" height="47" as="alternateBounds" />
          </mxGeometry>
        </mxCell>
        <mxCell id="3jrl7XaVkJX-t4Dwcv4B-213" style="shape=tableRow;horizontal=0;startSize=0;swimlaneHead=0;swimlaneBody=0;top=0;left=0;bottom=0;right=0;dropTarget=0;collapsible=0;recursiveResize=0;expand=0;fontStyle=0;fillColor=none;" parent="3jrl7XaVkJX-t4Dwcv4B-200" vertex="1">
          <mxGeometry y="140" width="180" height="47" as="geometry" />
        </mxCell>
        <mxCell id="3jrl7XaVkJX-t4Dwcv4B-214" value="3" style="connectable=0;recursiveResize=0;strokeColor=none;fillColor=none;align=center;whiteSpace=wrap;html=1;" parent="3jrl7XaVkJX-t4Dwcv4B-213" vertex="1">
          <mxGeometry width="60" height="47" as="geometry">
            <mxRectangle width="60" height="47" as="alternateBounds" />
          </mxGeometry>
        </mxCell>
        <mxCell id="3jrl7XaVkJX-t4Dwcv4B-215" value="b" style="connectable=0;recursiveResize=0;strokeColor=none;fillColor=none;align=center;whiteSpace=wrap;html=1;" parent="3jrl7XaVkJX-t4Dwcv4B-213" vertex="1">
          <mxGeometry x="60" width="60" height="47" as="geometry">
            <mxRectangle width="60" height="47" as="alternateBounds" />
          </mxGeometry>
        </mxCell>
        <mxCell id="3jrl7XaVkJX-t4Dwcv4B-216" value="2,3,4" style="connectable=0;recursiveResize=0;strokeColor=none;fillColor=none;align=center;whiteSpace=wrap;html=1;" parent="3jrl7XaVkJX-t4Dwcv4B-213" vertex="1">
          <mxGeometry x="120" width="60" height="47" as="geometry">
            <mxRectangle width="60" height="47" as="alternateBounds" />
          </mxGeometry>
        </mxCell>
        <mxCell id="3jrl7XaVkJX-t4Dwcv4B-217" style="shape=tableRow;horizontal=0;startSize=0;swimlaneHead=0;swimlaneBody=0;top=0;left=0;bottom=0;right=0;dropTarget=0;collapsible=0;recursiveResize=0;expand=0;fontStyle=0;fillColor=none;" parent="3jrl7XaVkJX-t4Dwcv4B-200" vertex="1">
          <mxGeometry y="187" width="180" height="47" as="geometry" />
        </mxCell>
        <mxCell id="3jrl7XaVkJX-t4Dwcv4B-218" value="4" style="connectable=0;recursiveResize=0;strokeColor=none;fillColor=none;align=center;whiteSpace=wrap;html=1;" parent="3jrl7XaVkJX-t4Dwcv4B-217" vertex="1">
          <mxGeometry width="60" height="47" as="geometry">
            <mxRectangle width="60" height="47" as="alternateBounds" />
          </mxGeometry>
        </mxCell>
        <mxCell id="3jrl7XaVkJX-t4Dwcv4B-219" value="d" style="connectable=0;recursiveResize=0;strokeColor=none;fillColor=none;align=center;whiteSpace=wrap;html=1;" parent="3jrl7XaVkJX-t4Dwcv4B-217" vertex="1">
          <mxGeometry x="60" width="60" height="47" as="geometry">
            <mxRectangle width="60" height="47" as="alternateBounds" />
          </mxGeometry>
        </mxCell>
        <mxCell id="3jrl7XaVkJX-t4Dwcv4B-220" value="4, 5" style="connectable=0;recursiveResize=0;strokeColor=none;fillColor=none;align=center;whiteSpace=wrap;html=1;" parent="3jrl7XaVkJX-t4Dwcv4B-217" vertex="1">
          <mxGeometry x="120" width="60" height="47" as="geometry">
            <mxRectangle width="60" height="47" as="alternateBounds" />
          </mxGeometry>
        </mxCell>
        <mxCell id="3jrl7XaVkJX-t4Dwcv4B-221" style="shape=tableRow;horizontal=0;startSize=0;swimlaneHead=0;swimlaneBody=0;top=0;left=0;bottom=0;right=0;dropTarget=0;collapsible=0;recursiveResize=0;expand=0;fontStyle=0;fillColor=none;" parent="3jrl7XaVkJX-t4Dwcv4B-200" vertex="1">
          <mxGeometry y="234" width="180" height="47" as="geometry" />
        </mxCell>
        <mxCell id="3jrl7XaVkJX-t4Dwcv4B-222" value="5" style="connectable=0;recursiveResize=0;strokeColor=none;fillColor=none;align=center;whiteSpace=wrap;html=1;" parent="3jrl7XaVkJX-t4Dwcv4B-221" vertex="1">
          <mxGeometry width="60" height="47" as="geometry">
            <mxRectangle width="60" height="47" as="alternateBounds" />
          </mxGeometry>
        </mxCell>
        <mxCell id="3jrl7XaVkJX-t4Dwcv4B-223" value="#" style="connectable=0;recursiveResize=0;strokeColor=none;fillColor=none;align=center;whiteSpace=wrap;html=1;" parent="3jrl7XaVkJX-t4Dwcv4B-221" vertex="1">
          <mxGeometry x="60" width="60" height="47" as="geometry">
            <mxRectangle width="60" height="47" as="alternateBounds" />
          </mxGeometry>
        </mxCell>
        <mxCell id="3jrl7XaVkJX-t4Dwcv4B-224" style="connectable=0;recursiveResize=0;strokeColor=none;fillColor=none;align=center;whiteSpace=wrap;html=1;" parent="3jrl7XaVkJX-t4Dwcv4B-221" vertex="1">
          <mxGeometry x="120" width="60" height="47" as="geometry">
            <mxRectangle width="60" height="47" as="alternateBounds" />
          </mxGeometry>
        </mxCell>
        <mxCell id="3jrl7XaVkJX-t4Dwcv4B-227" value="A" style="text;html=1;align=center;verticalAlign=middle;resizable=0;points=[];autosize=1;strokeColor=none;fillColor=none;" parent="1" vertex="1">
          <mxGeometry x="312" y="357" width="26" height="26" as="geometry" />
        </mxCell>
        <mxCell id="3jrl7XaVkJX-t4Dwcv4B-228" value="1" style="text;html=1;align=center;verticalAlign=middle;resizable=0;points=[];autosize=1;strokeColor=none;fillColor=none;" parent="1" vertex="1">
          <mxGeometry x="143" y="269" width="25" height="26" as="geometry" />
        </mxCell>
        <mxCell id="3jrl7XaVkJX-t4Dwcv4B-229" value="1,2,3" style="text;html=1;align=center;verticalAlign=middle;resizable=0;points=[];autosize=1;strokeColor=none;fillColor=none;" parent="1" vertex="1">
          <mxGeometry x="252" y="265" width="45" height="26" as="geometry" />
        </mxCell>
        <mxCell id="3jrl7XaVkJX-t4Dwcv4B-230" value="1" style="text;html=1;align=center;verticalAlign=middle;resizable=0;points=[];autosize=1;strokeColor=none;fillColor=none;" parent="1" vertex="1">
          <mxGeometry x="321" y="169" width="25" height="26" as="geometry" />
        </mxCell>
        <mxCell id="3jrl7XaVkJX-t4Dwcv4B-231" value="4" style="text;html=1;align=center;verticalAlign=middle;resizable=0;points=[];autosize=1;strokeColor=none;fillColor=none;" parent="1" vertex="1">
          <mxGeometry x="448" y="169" width="25" height="26" as="geometry" />
        </mxCell>
        <mxCell id="3jrl7XaVkJX-t4Dwcv4B-232" value="1" style="text;html=1;align=center;verticalAlign=middle;resizable=0;points=[];autosize=1;strokeColor=none;fillColor=none;" parent="1" vertex="1">
          <mxGeometry x="505" y="76" width="25" height="26" as="geometry" />
        </mxCell>
        <mxCell id="3jrl7XaVkJX-t4Dwcv4B-233" value="5" style="text;html=1;align=center;verticalAlign=middle;resizable=0;points=[];autosize=1;strokeColor=none;fillColor=none;" parent="1" vertex="1">
          <mxGeometry x="619" y="74" width="25" height="26" as="geometry" />
        </mxCell>
        <mxCell id="3jrl7XaVkJX-t4Dwcv4B-234" value="&lt;h3&gt;Tabla Follow POS&lt;/h3&gt;" style="text;html=1;align=center;verticalAlign=middle;resizable=0;points=[];autosize=1;strokeColor=none;fillColor=none;" parent="1" vertex="1">
          <mxGeometry x="57" y="759" width="136" height="57" as="geometry" />
        </mxCell>
        <mxCell id="3jrl7XaVkJX-t4Dwcv4B-235" value="&lt;h3&gt;Tabla Trancisiones&lt;/h3&gt;" style="text;html=1;align=center;verticalAlign=middle;resizable=0;points=[];autosize=1;strokeColor=none;fillColor=none;" parent="1" vertex="1">
          <mxGeometry x="441" y="752" width="143" height="57" as="geometry" />
        </mxCell>
        <mxCell id="3jrl7XaVkJX-t4Dwcv4B-236" value="" style="childLayout=tableLayout;recursiveResize=0;shadow=0;fillColor=none;strokeColor=#C0C0C0;" parent="1" vertex="1">
          <mxGeometry x="432" y="809" width="371" height="179.79166666666663" as="geometry" />
        </mxCell>
        <mxCell id="3jrl7XaVkJX-t4Dwcv4B-237" value="" style="shape=tableRow;horizontal=0;startSize=0;swimlaneHead=0;swimlaneBody=0;top=0;left=0;bottom=0;right=0;dropTarget=0;collapsible=0;recursiveResize=0;expand=0;fontStyle=0;fillColor=none;" parent="3jrl7XaVkJX-t4Dwcv4B-236" vertex="1">
          <mxGeometry width="371" height="47" as="geometry" />
        </mxCell>
        <mxCell id="3jrl7XaVkJX-t4Dwcv4B-238" value="" style="connectable=0;recursiveResize=0;strokeColor=none;fillColor=none;align=center;whiteSpace=wrap;html=1;" parent="3jrl7XaVkJX-t4Dwcv4B-237" vertex="1">
          <mxGeometry width="70" height="47" as="geometry">
            <mxRectangle width="70" height="47" as="alternateBounds" />
          </mxGeometry>
        </mxCell>
        <mxCell id="3jrl7XaVkJX-t4Dwcv4B-239" value="c" style="connectable=0;recursiveResize=0;strokeColor=none;fillColor=none;align=center;whiteSpace=wrap;html=1;" parent="3jrl7XaVkJX-t4Dwcv4B-237" vertex="1">
          <mxGeometry x="70" width="54" height="47" as="geometry">
            <mxRectangle width="54" height="47" as="alternateBounds" />
          </mxGeometry>
        </mxCell>
        <mxCell id="3jrl7XaVkJX-t4Dwcv4B-240" value="a" style="connectable=0;recursiveResize=0;strokeColor=none;fillColor=none;align=center;whiteSpace=wrap;html=1;" parent="3jrl7XaVkJX-t4Dwcv4B-237" vertex="1">
          <mxGeometry x="124" width="62" height="47" as="geometry">
            <mxRectangle width="62" height="47" as="alternateBounds" />
          </mxGeometry>
        </mxCell>
        <mxCell id="3jrl7XaVkJX-t4Dwcv4B-241" value="b" style="connectable=0;recursiveResize=0;strokeColor=none;fillColor=none;align=center;whiteSpace=wrap;html=1;" parent="3jrl7XaVkJX-t4Dwcv4B-237" vertex="1">
          <mxGeometry x="186" width="61" height="47" as="geometry">
            <mxRectangle width="61" height="47" as="alternateBounds" />
          </mxGeometry>
        </mxCell>
        <mxCell id="3jrl7XaVkJX-t4Dwcv4B-242" value="d" style="connectable=0;recursiveResize=0;strokeColor=none;fillColor=none;align=center;whiteSpace=wrap;html=1;" parent="3jrl7XaVkJX-t4Dwcv4B-237" vertex="1">
          <mxGeometry x="247" width="62" height="47" as="geometry">
            <mxRectangle width="62" height="47" as="alternateBounds" />
          </mxGeometry>
        </mxCell>
        <mxCell id="3jrl7XaVkJX-t4Dwcv4B-243" value="ACE" style="connectable=0;recursiveResize=0;strokeColor=none;fillColor=none;align=center;whiteSpace=wrap;html=1;" parent="3jrl7XaVkJX-t4Dwcv4B-237" vertex="1">
          <mxGeometry x="309" width="62" height="47" as="geometry">
            <mxRectangle width="62" height="47" as="alternateBounds" />
          </mxGeometry>
        </mxCell>
        <mxCell id="3jrl7XaVkJX-t4Dwcv4B-244" style="shape=tableRow;horizontal=0;startSize=0;swimlaneHead=0;swimlaneBody=0;top=0;left=0;bottom=0;right=0;dropTarget=0;collapsible=0;recursiveResize=0;expand=0;fontStyle=0;fillColor=none;" parent="3jrl7XaVkJX-t4Dwcv4B-236" vertex="1">
          <mxGeometry y="47" width="371" height="46" as="geometry" />
        </mxCell>
        <mxCell id="3jrl7XaVkJX-t4Dwcv4B-245" value="x0 = {1}" style="connectable=0;recursiveResize=0;strokeColor=none;fillColor=none;align=center;whiteSpace=wrap;html=1;" parent="3jrl7XaVkJX-t4Dwcv4B-244" vertex="1">
          <mxGeometry width="70" height="46" as="geometry">
            <mxRectangle width="70" height="46" as="alternateBounds" />
          </mxGeometry>
        </mxCell>
        <mxCell id="3jrl7XaVkJX-t4Dwcv4B-246" value="x1" style="connectable=0;recursiveResize=0;strokeColor=none;fillColor=none;align=center;whiteSpace=wrap;html=1;" parent="3jrl7XaVkJX-t4Dwcv4B-244" vertex="1">
          <mxGeometry x="70" width="54" height="46" as="geometry">
            <mxRectangle width="54" height="46" as="alternateBounds" />
          </mxGeometry>
        </mxCell>
        <mxCell id="3jrl7XaVkJX-t4Dwcv4B-247" value="" style="connectable=0;recursiveResize=0;strokeColor=none;fillColor=none;align=center;whiteSpace=wrap;html=1;" parent="3jrl7XaVkJX-t4Dwcv4B-244" vertex="1">
          <mxGeometry x="124" width="62" height="46" as="geometry">
            <mxRectangle width="62" height="46" as="alternateBounds" />
          </mxGeometry>
        </mxCell>
        <mxCell id="3jrl7XaVkJX-t4Dwcv4B-248" style="connectable=0;recursiveResize=0;strokeColor=none;fillColor=none;align=center;whiteSpace=wrap;html=1;" parent="3jrl7XaVkJX-t4Dwcv4B-244" vertex="1">
          <mxGeometry x="186" width="61" height="46" as="geometry">
            <mxRectangle width="61" height="46" as="alternateBounds" />
          </mxGeometry>
        </mxCell>
        <mxCell id="3jrl7XaVkJX-t4Dwcv4B-249" style="connectable=0;recursiveResize=0;strokeColor=none;fillColor=none;align=center;whiteSpace=wrap;html=1;" parent="3jrl7XaVkJX-t4Dwcv4B-244" vertex="1">
          <mxGeometry x="247" width="62" height="46" as="geometry">
            <mxRectangle width="62" height="46" as="alternateBounds" />
          </mxGeometry>
        </mxCell>
        <mxCell id="3jrl7XaVkJX-t4Dwcv4B-250" style="connectable=0;recursiveResize=0;strokeColor=none;fillColor=none;align=center;whiteSpace=wrap;html=1;" parent="3jrl7XaVkJX-t4Dwcv4B-244" vertex="1">
          <mxGeometry x="309" width="62" height="46" as="geometry">
            <mxRectangle width="62" height="46" as="alternateBounds" />
          </mxGeometry>
        </mxCell>
        <mxCell id="3jrl7XaVkJX-t4Dwcv4B-251" style="shape=tableRow;horizontal=0;startSize=0;swimlaneHead=0;swimlaneBody=0;top=0;left=0;bottom=0;right=0;dropTarget=0;collapsible=0;recursiveResize=0;expand=0;fontStyle=0;fillColor=none;" parent="3jrl7XaVkJX-t4Dwcv4B-236" vertex="1">
          <mxGeometry y="93" width="371" height="47" as="geometry" />
        </mxCell>
        <mxCell id="3jrl7XaVkJX-t4Dwcv4B-252" value="x1 = {2,3,4}" style="connectable=0;recursiveResize=0;strokeColor=none;fillColor=none;align=center;whiteSpace=wrap;html=1;" parent="3jrl7XaVkJX-t4Dwcv4B-251" vertex="1">
          <mxGeometry width="70" height="47" as="geometry">
            <mxRectangle width="70" height="47" as="alternateBounds" />
          </mxGeometry>
        </mxCell>
        <mxCell id="3jrl7XaVkJX-t4Dwcv4B-253" value="" style="connectable=0;recursiveResize=0;strokeColor=none;fillColor=none;align=center;whiteSpace=wrap;html=1;" parent="3jrl7XaVkJX-t4Dwcv4B-251" vertex="1">
          <mxGeometry x="70" width="54" height="47" as="geometry">
            <mxRectangle width="54" height="47" as="alternateBounds" />
          </mxGeometry>
        </mxCell>
        <mxCell id="3jrl7XaVkJX-t4Dwcv4B-254" value="x1" style="connectable=0;recursiveResize=0;strokeColor=none;fillColor=none;align=center;whiteSpace=wrap;html=1;" parent="3jrl7XaVkJX-t4Dwcv4B-251" vertex="1">
          <mxGeometry x="124" width="62" height="47" as="geometry">
            <mxRectangle width="62" height="47" as="alternateBounds" />
          </mxGeometry>
        </mxCell>
        <mxCell id="3jrl7XaVkJX-t4Dwcv4B-255" value="x1" style="connectable=0;recursiveResize=0;strokeColor=none;fillColor=none;align=center;whiteSpace=wrap;html=1;" parent="3jrl7XaVkJX-t4Dwcv4B-251" vertex="1">
          <mxGeometry x="186" width="61" height="47" as="geometry">
            <mxRectangle width="61" height="47" as="alternateBounds" />
          </mxGeometry>
        </mxCell>
        <mxCell id="3jrl7XaVkJX-t4Dwcv4B-256" value="x2" style="connectable=0;recursiveResize=0;strokeColor=none;fillColor=none;align=center;whiteSpace=wrap;html=1;" parent="3jrl7XaVkJX-t4Dwcv4B-251" vertex="1">
          <mxGeometry x="247" width="62" height="47" as="geometry">
            <mxRectangle width="62" height="47" as="alternateBounds" />
          </mxGeometry>
        </mxCell>
        <mxCell id="3jrl7XaVkJX-t4Dwcv4B-257" value="" style="connectable=0;recursiveResize=0;strokeColor=none;fillColor=none;align=center;whiteSpace=wrap;html=1;" parent="3jrl7XaVkJX-t4Dwcv4B-251" vertex="1">
          <mxGeometry x="309" width="62" height="47" as="geometry">
            <mxRectangle width="62" height="47" as="alternateBounds" />
          </mxGeometry>
        </mxCell>
        <mxCell id="3jrl7XaVkJX-t4Dwcv4B-258" style="shape=tableRow;horizontal=0;startSize=0;swimlaneHead=0;swimlaneBody=0;top=0;left=0;bottom=0;right=0;dropTarget=0;collapsible=0;recursiveResize=0;expand=0;fontStyle=0;fillColor=none;" parent="3jrl7XaVkJX-t4Dwcv4B-236" vertex="1">
          <mxGeometry y="140" width="371" height="40" as="geometry" />
        </mxCell>
        <mxCell id="3jrl7XaVkJX-t4Dwcv4B-259" value="x2 = {4,5}" style="connectable=0;recursiveResize=0;strokeColor=none;fillColor=none;align=center;whiteSpace=wrap;html=1;" parent="3jrl7XaVkJX-t4Dwcv4B-258" vertex="1">
          <mxGeometry width="70" height="40" as="geometry">
            <mxRectangle width="70" height="40" as="alternateBounds" />
          </mxGeometry>
        </mxCell>
        <mxCell id="3jrl7XaVkJX-t4Dwcv4B-260" value="" style="connectable=0;recursiveResize=0;strokeColor=none;fillColor=none;align=center;whiteSpace=wrap;html=1;" parent="3jrl7XaVkJX-t4Dwcv4B-258" vertex="1">
          <mxGeometry x="70" width="54" height="40" as="geometry">
            <mxRectangle width="54" height="40" as="alternateBounds" />
          </mxGeometry>
        </mxCell>
        <mxCell id="3jrl7XaVkJX-t4Dwcv4B-261" value="" style="connectable=0;recursiveResize=0;strokeColor=none;fillColor=none;align=center;whiteSpace=wrap;html=1;" parent="3jrl7XaVkJX-t4Dwcv4B-258" vertex="1">
          <mxGeometry x="124" width="62" height="40" as="geometry">
            <mxRectangle width="62" height="40" as="alternateBounds" />
          </mxGeometry>
        </mxCell>
        <mxCell id="3jrl7XaVkJX-t4Dwcv4B-262" value="" style="connectable=0;recursiveResize=0;strokeColor=none;fillColor=none;align=center;whiteSpace=wrap;html=1;" parent="3jrl7XaVkJX-t4Dwcv4B-258" vertex="1">
          <mxGeometry x="186" width="61" height="40" as="geometry">
            <mxRectangle width="61" height="40" as="alternateBounds" />
          </mxGeometry>
        </mxCell>
        <mxCell id="3jrl7XaVkJX-t4Dwcv4B-263" value="x2" style="connectable=0;recursiveResize=0;strokeColor=none;fillColor=none;align=center;whiteSpace=wrap;html=1;" parent="3jrl7XaVkJX-t4Dwcv4B-258" vertex="1">
          <mxGeometry x="247" width="62" height="40" as="geometry">
            <mxRectangle width="62" height="40" as="alternateBounds" />
          </mxGeometry>
        </mxCell>
        <mxCell id="3jrl7XaVkJX-t4Dwcv4B-264" value="si" style="connectable=0;recursiveResize=0;strokeColor=none;fillColor=none;align=center;whiteSpace=wrap;html=1;" parent="3jrl7XaVkJX-t4Dwcv4B-258" vertex="1">
          <mxGeometry x="309" width="62" height="40" as="geometry">
            <mxRectangle width="62" height="40" as="alternateBounds" />
          </mxGeometry>
        </mxCell>
        <mxCell id="NHuSI-1YI1ZrhcURwJNk-1" style="edgeStyle=orthogonalEdgeStyle;rounded=0;orthogonalLoop=1;jettySize=auto;html=1;exitX=0;exitY=0.5;exitDx=0;exitDy=0;" edge="1" parent="1" source="NHuSI-1YI1ZrhcURwJNk-4" target="NHuSI-1YI1ZrhcURwJNk-5">
          <mxGeometry relative="1" as="geometry">
            <mxPoint x="83" y="1859" as="targetPoint" />
          </mxGeometry>
        </mxCell>
        <mxCell id="NHuSI-1YI1ZrhcURwJNk-2" style="edgeStyle=orthogonalEdgeStyle;rounded=0;orthogonalLoop=1;jettySize=auto;html=1;exitX=1;exitY=0.5;exitDx=0;exitDy=0;" edge="1" parent="1" source="NHuSI-1YI1ZrhcURwJNk-4" target="NHuSI-1YI1ZrhcURwJNk-6">
          <mxGeometry relative="1" as="geometry">
            <mxPoint x="283" y="1829" as="targetPoint" />
          </mxGeometry>
        </mxCell>
        <mxCell id="NHuSI-1YI1ZrhcURwJNk-3" style="edgeStyle=orthogonalEdgeStyle;rounded=0;orthogonalLoop=1;jettySize=auto;html=1;exitX=0.5;exitY=0;exitDx=0;exitDy=0;" edge="1" parent="1" source="NHuSI-1YI1ZrhcURwJNk-4" target="NHuSI-1YI1ZrhcURwJNk-8">
          <mxGeometry relative="1" as="geometry">
            <mxPoint x="193" y="1629" as="targetPoint" />
          </mxGeometry>
        </mxCell>
        <mxCell id="NHuSI-1YI1ZrhcURwJNk-4" value="|" style="ellipse;whiteSpace=wrap;html=1;aspect=fixed;" vertex="1" parent="1">
          <mxGeometry x="153" y="1719" width="80" height="80" as="geometry" />
        </mxCell>
        <mxCell id="NHuSI-1YI1ZrhcURwJNk-5" value="a" style="ellipse;whiteSpace=wrap;html=1;aspect=fixed;" vertex="1" parent="1">
          <mxGeometry x="43" y="1809" width="80" height="80" as="geometry" />
        </mxCell>
        <mxCell id="NHuSI-1YI1ZrhcURwJNk-6" value="b" style="ellipse;whiteSpace=wrap;html=1;aspect=fixed;" vertex="1" parent="1">
          <mxGeometry x="243" y="1809" width="80" height="80" as="geometry" />
        </mxCell>
        <mxCell id="NHuSI-1YI1ZrhcURwJNk-7" style="edgeStyle=orthogonalEdgeStyle;rounded=0;orthogonalLoop=1;jettySize=auto;html=1;exitX=0.5;exitY=0;exitDx=0;exitDy=0;entryX=0;entryY=0.5;entryDx=0;entryDy=0;" edge="1" parent="1" source="NHuSI-1YI1ZrhcURwJNk-8" target="NHuSI-1YI1ZrhcURwJNk-11">
          <mxGeometry relative="1" as="geometry">
            <mxPoint x="193" y="1479" as="targetPoint" />
          </mxGeometry>
        </mxCell>
        <mxCell id="NHuSI-1YI1ZrhcURwJNk-8" value="+" style="ellipse;whiteSpace=wrap;html=1;aspect=fixed;" vertex="1" parent="1">
          <mxGeometry x="153" y="1559" width="80" height="80" as="geometry" />
        </mxCell>
        <mxCell id="NHuSI-1YI1ZrhcURwJNk-9" style="edgeStyle=orthogonalEdgeStyle;rounded=0;orthogonalLoop=1;jettySize=auto;html=1;exitX=1;exitY=0.5;exitDx=0;exitDy=0;" edge="1" parent="1" source="NHuSI-1YI1ZrhcURwJNk-11" target="NHuSI-1YI1ZrhcURwJNk-13">
          <mxGeometry relative="1" as="geometry">
            <mxPoint x="643" y="1599" as="targetPoint" />
          </mxGeometry>
        </mxCell>
        <mxCell id="NHuSI-1YI1ZrhcURwJNk-10" style="edgeStyle=orthogonalEdgeStyle;rounded=0;orthogonalLoop=1;jettySize=auto;html=1;exitX=0.5;exitY=0;exitDx=0;exitDy=0;entryX=0;entryY=0.5;entryDx=0;entryDy=0;" edge="1" parent="1" source="NHuSI-1YI1ZrhcURwJNk-11" target="NHuSI-1YI1ZrhcURwJNk-28">
          <mxGeometry relative="1" as="geometry">
            <mxPoint x="653" y="1359" as="targetPoint" />
          </mxGeometry>
        </mxCell>
        <mxCell id="NHuSI-1YI1ZrhcURwJNk-11" value="." style="ellipse;whiteSpace=wrap;html=1;aspect=fixed;" vertex="1" parent="1">
          <mxGeometry x="383" y="1429" width="80" height="80" as="geometry" />
        </mxCell>
        <mxCell id="NHuSI-1YI1ZrhcURwJNk-12" style="edgeStyle=orthogonalEdgeStyle;rounded=0;orthogonalLoop=1;jettySize=auto;html=1;exitX=0.5;exitY=1;exitDx=0;exitDy=0;entryX=0.5;entryY=0;entryDx=0;entryDy=0;" edge="1" parent="1" source="NHuSI-1YI1ZrhcURwJNk-13" target="NHuSI-1YI1ZrhcURwJNk-16">
          <mxGeometry relative="1" as="geometry" />
        </mxCell>
        <mxCell id="NHuSI-1YI1ZrhcURwJNk-13" value="?" style="ellipse;whiteSpace=wrap;html=1;aspect=fixed;" vertex="1" parent="1">
          <mxGeometry x="687" y="1562" width="80" height="80" as="geometry" />
        </mxCell>
        <mxCell id="NHuSI-1YI1ZrhcURwJNk-14" style="edgeStyle=orthogonalEdgeStyle;rounded=0;orthogonalLoop=1;jettySize=auto;html=1;exitX=0;exitY=0.5;exitDx=0;exitDy=0;entryX=0.5;entryY=0;entryDx=0;entryDy=0;" edge="1" parent="1" source="NHuSI-1YI1ZrhcURwJNk-16" target="NHuSI-1YI1ZrhcURwJNk-19">
          <mxGeometry relative="1" as="geometry">
            <mxPoint x="565" y="1837" as="targetPoint" />
          </mxGeometry>
        </mxCell>
        <mxCell id="NHuSI-1YI1ZrhcURwJNk-15" style="edgeStyle=orthogonalEdgeStyle;rounded=0;orthogonalLoop=1;jettySize=auto;html=1;exitX=1;exitY=0.5;exitDx=0;exitDy=0;" edge="1" parent="1" source="NHuSI-1YI1ZrhcURwJNk-16" target="NHuSI-1YI1ZrhcURwJNk-22">
          <mxGeometry relative="1" as="geometry">
            <mxPoint x="875" y="1817" as="targetPoint" />
          </mxGeometry>
        </mxCell>
        <mxCell id="NHuSI-1YI1ZrhcURwJNk-16" value="|" style="ellipse;whiteSpace=wrap;html=1;aspect=fixed;" vertex="1" parent="1">
          <mxGeometry x="687" y="1727" width="80" height="80" as="geometry" />
        </mxCell>
        <mxCell id="NHuSI-1YI1ZrhcURwJNk-17" style="edgeStyle=orthogonalEdgeStyle;rounded=0;orthogonalLoop=1;jettySize=auto;html=1;exitX=0;exitY=0.5;exitDx=0;exitDy=0;" edge="1" parent="1" source="NHuSI-1YI1ZrhcURwJNk-19" target="NHuSI-1YI1ZrhcURwJNk-23">
          <mxGeometry relative="1" as="geometry">
            <mxPoint x="485" y="1957" as="targetPoint" />
          </mxGeometry>
        </mxCell>
        <mxCell id="NHuSI-1YI1ZrhcURwJNk-18" style="edgeStyle=orthogonalEdgeStyle;rounded=0;orthogonalLoop=1;jettySize=auto;html=1;exitX=1;exitY=0.5;exitDx=0;exitDy=0;" edge="1" parent="1" source="NHuSI-1YI1ZrhcURwJNk-19" target="NHuSI-1YI1ZrhcURwJNk-24">
          <mxGeometry relative="1" as="geometry">
            <mxPoint x="635" y="1917" as="targetPoint" />
          </mxGeometry>
        </mxCell>
        <mxCell id="NHuSI-1YI1ZrhcURwJNk-19" value="." style="ellipse;whiteSpace=wrap;html=1;aspect=fixed;" vertex="1" parent="1">
          <mxGeometry x="515" y="1807" width="80" height="80" as="geometry" />
        </mxCell>
        <mxCell id="NHuSI-1YI1ZrhcURwJNk-20" style="edgeStyle=orthogonalEdgeStyle;rounded=0;orthogonalLoop=1;jettySize=auto;html=1;exitX=0;exitY=0.5;exitDx=0;exitDy=0;" edge="1" parent="1" source="NHuSI-1YI1ZrhcURwJNk-22" target="NHuSI-1YI1ZrhcURwJNk-25">
          <mxGeometry relative="1" as="geometry">
            <mxPoint x="805" y="1917" as="targetPoint" />
          </mxGeometry>
        </mxCell>
        <mxCell id="NHuSI-1YI1ZrhcURwJNk-21" style="edgeStyle=orthogonalEdgeStyle;rounded=0;orthogonalLoop=1;jettySize=auto;html=1;exitX=1;exitY=0.5;exitDx=0;exitDy=0;" edge="1" parent="1" source="NHuSI-1YI1ZrhcURwJNk-22" target="NHuSI-1YI1ZrhcURwJNk-26">
          <mxGeometry relative="1" as="geometry">
            <mxPoint x="975" y="1927" as="targetPoint" />
          </mxGeometry>
        </mxCell>
        <mxCell id="NHuSI-1YI1ZrhcURwJNk-22" value="." style="ellipse;whiteSpace=wrap;html=1;aspect=fixed;" vertex="1" parent="1">
          <mxGeometry x="845" y="1817" width="80" height="80" as="geometry" />
        </mxCell>
        <mxCell id="NHuSI-1YI1ZrhcURwJNk-23" value="b" style="ellipse;whiteSpace=wrap;html=1;aspect=fixed;" vertex="1" parent="1">
          <mxGeometry x="421" y="1915" width="80" height="80" as="geometry" />
        </mxCell>
        <mxCell id="NHuSI-1YI1ZrhcURwJNk-24" value="c" style="ellipse;whiteSpace=wrap;html=1;aspect=fixed;" vertex="1" parent="1">
          <mxGeometry x="595" y="1917" width="80" height="80" as="geometry" />
        </mxCell>
        <mxCell id="NHuSI-1YI1ZrhcURwJNk-25" value="c" style="ellipse;whiteSpace=wrap;html=1;aspect=fixed;" vertex="1" parent="1">
          <mxGeometry x="755" y="1922" width="80" height="80" as="geometry" />
        </mxCell>
        <mxCell id="NHuSI-1YI1ZrhcURwJNk-26" value="d" style="ellipse;whiteSpace=wrap;html=1;aspect=fixed;" vertex="1" parent="1">
          <mxGeometry x="925" y="1922" width="80" height="80" as="geometry" />
        </mxCell>
        <mxCell id="NHuSI-1YI1ZrhcURwJNk-27" style="edgeStyle=orthogonalEdgeStyle;rounded=0;orthogonalLoop=1;jettySize=auto;html=1;exitX=1;exitY=0.5;exitDx=0;exitDy=0;" edge="1" parent="1" source="NHuSI-1YI1ZrhcURwJNk-28" target="NHuSI-1YI1ZrhcURwJNk-29">
          <mxGeometry relative="1" as="geometry">
            <mxPoint x="813" y="1429" as="targetPoint" />
          </mxGeometry>
        </mxCell>
        <mxCell id="NHuSI-1YI1ZrhcURwJNk-28" value="." style="ellipse;whiteSpace=wrap;html=1;aspect=fixed;" vertex="1" parent="1">
          <mxGeometry x="613" y="1299" width="80" height="80" as="geometry" />
        </mxCell>
        <mxCell id="NHuSI-1YI1ZrhcURwJNk-29" value="#" style="ellipse;whiteSpace=wrap;html=1;aspect=fixed;" vertex="1" parent="1">
          <mxGeometry x="803" y="1429" width="80" height="80" as="geometry" />
        </mxCell>
        <mxCell id="NHuSI-1YI1ZrhcURwJNk-30" value="1" style="text;strokeColor=none;align=center;fillColor=none;html=1;verticalAlign=middle;whiteSpace=wrap;rounded=0;" vertex="1" parent="1">
          <mxGeometry x="51" y="1893" width="60" height="30" as="geometry" />
        </mxCell>
        <mxCell id="NHuSI-1YI1ZrhcURwJNk-31" value="2" style="text;strokeColor=none;align=center;fillColor=none;html=1;verticalAlign=middle;whiteSpace=wrap;rounded=0;" vertex="1" parent="1">
          <mxGeometry x="250" y="1899" width="60" height="30" as="geometry" />
        </mxCell>
        <mxCell id="NHuSI-1YI1ZrhcURwJNk-32" value="3" style="text;strokeColor=none;align=center;fillColor=none;html=1;verticalAlign=middle;whiteSpace=wrap;rounded=0;" vertex="1" parent="1">
          <mxGeometry x="434" y="2004" width="60" height="30" as="geometry" />
        </mxCell>
        <mxCell id="NHuSI-1YI1ZrhcURwJNk-33" value="4" style="text;strokeColor=none;align=center;fillColor=none;html=1;verticalAlign=middle;whiteSpace=wrap;rounded=0;" vertex="1" parent="1">
          <mxGeometry x="605" y="2004" width="60" height="30" as="geometry" />
        </mxCell>
        <mxCell id="NHuSI-1YI1ZrhcURwJNk-34" value="5" style="text;strokeColor=none;align=center;fillColor=none;html=1;verticalAlign=middle;whiteSpace=wrap;rounded=0;" vertex="1" parent="1">
          <mxGeometry x="765" y="2009" width="60" height="30" as="geometry" />
        </mxCell>
        <mxCell id="NHuSI-1YI1ZrhcURwJNk-35" value="6" style="text;strokeColor=none;align=center;fillColor=none;html=1;verticalAlign=middle;whiteSpace=wrap;rounded=0;" vertex="1" parent="1">
          <mxGeometry x="935" y="2011" width="60" height="30" as="geometry" />
        </mxCell>
        <mxCell id="NHuSI-1YI1ZrhcURwJNk-36" value="7" style="text;strokeColor=none;align=center;fillColor=none;html=1;verticalAlign=middle;whiteSpace=wrap;rounded=0;" vertex="1" parent="1">
          <mxGeometry x="815" y="1517" width="60" height="30" as="geometry" />
        </mxCell>
        <mxCell id="NHuSI-1YI1ZrhcURwJNk-37" value="1" style="text;strokeColor=none;align=center;fillColor=none;html=1;verticalAlign=middle;whiteSpace=wrap;rounded=0;" vertex="1" parent="1">
          <mxGeometry x="5" y="1834" width="60" height="30" as="geometry" />
        </mxCell>
        <mxCell id="NHuSI-1YI1ZrhcURwJNk-38" value="1" style="text;strokeColor=none;align=center;fillColor=none;html=1;verticalAlign=middle;whiteSpace=wrap;rounded=0;" vertex="1" parent="1">
          <mxGeometry x="101" y="1832" width="60" height="30" as="geometry" />
        </mxCell>
        <mxCell id="NHuSI-1YI1ZrhcURwJNk-39" value="2" style="text;strokeColor=none;align=center;fillColor=none;html=1;verticalAlign=middle;whiteSpace=wrap;rounded=0;" vertex="1" parent="1">
          <mxGeometry x="202" y="1834" width="60" height="30" as="geometry" />
        </mxCell>
        <mxCell id="NHuSI-1YI1ZrhcURwJNk-40" value="2" style="text;strokeColor=none;align=center;fillColor=none;html=1;verticalAlign=middle;whiteSpace=wrap;rounded=0;" vertex="1" parent="1">
          <mxGeometry x="301" y="1832" width="60" height="30" as="geometry" />
        </mxCell>
        <mxCell id="NHuSI-1YI1ZrhcURwJNk-41" value="3" style="text;strokeColor=none;align=center;fillColor=none;html=1;verticalAlign=middle;whiteSpace=wrap;rounded=0;" vertex="1" parent="1">
          <mxGeometry x="383" y="1938" width="60" height="30" as="geometry" />
        </mxCell>
        <mxCell id="NHuSI-1YI1ZrhcURwJNk-42" style="edgeStyle=orthogonalEdgeStyle;rounded=0;orthogonalLoop=1;jettySize=auto;html=1;exitX=0.5;exitY=1;exitDx=0;exitDy=0;entryX=0.5;entryY=1;entryDx=0;entryDy=0;fillColor=#f8cecc;strokeColor=#b85450;" edge="1" parent="1" source="NHuSI-1YI1ZrhcURwJNk-43" target="NHuSI-1YI1ZrhcURwJNk-44">
          <mxGeometry relative="1" as="geometry" />
        </mxCell>
        <mxCell id="NHuSI-1YI1ZrhcURwJNk-43" value="3" style="text;strokeColor=none;align=center;fillColor=none;html=1;verticalAlign=middle;whiteSpace=wrap;rounded=0;" vertex="1" parent="1">
          <mxGeometry x="481" y="1938" width="60" height="30" as="geometry" />
        </mxCell>
        <mxCell id="NHuSI-1YI1ZrhcURwJNk-44" value="4" style="text;strokeColor=none;align=center;fillColor=none;html=1;verticalAlign=middle;whiteSpace=wrap;rounded=0;" vertex="1" parent="1">
          <mxGeometry x="559" y="1942" width="60" height="30" as="geometry" />
        </mxCell>
        <mxCell id="NHuSI-1YI1ZrhcURwJNk-45" value="4" style="text;strokeColor=none;align=center;fillColor=none;html=1;verticalAlign=middle;whiteSpace=wrap;rounded=0;" vertex="1" parent="1">
          <mxGeometry x="653" y="1944" width="60" height="30" as="geometry" />
        </mxCell>
        <mxCell id="NHuSI-1YI1ZrhcURwJNk-46" value="5" style="text;strokeColor=none;align=center;fillColor=none;html=1;verticalAlign=middle;whiteSpace=wrap;rounded=0;" vertex="1" parent="1">
          <mxGeometry x="718" y="1942" width="60" height="30" as="geometry" />
        </mxCell>
        <mxCell id="NHuSI-1YI1ZrhcURwJNk-47" style="edgeStyle=orthogonalEdgeStyle;rounded=0;orthogonalLoop=1;jettySize=auto;html=1;exitX=0.5;exitY=1;exitDx=0;exitDy=0;entryX=0.5;entryY=1;entryDx=0;entryDy=0;fillColor=#f8cecc;strokeColor=#b85450;" edge="1" parent="1" source="NHuSI-1YI1ZrhcURwJNk-48" target="NHuSI-1YI1ZrhcURwJNk-49">
          <mxGeometry relative="1" as="geometry" />
        </mxCell>
        <mxCell id="NHuSI-1YI1ZrhcURwJNk-48" value="5" style="text;strokeColor=none;align=center;fillColor=none;html=1;verticalAlign=middle;whiteSpace=wrap;rounded=0;" vertex="1" parent="1">
          <mxGeometry x="814" y="1947" width="60" height="30" as="geometry" />
        </mxCell>
        <mxCell id="NHuSI-1YI1ZrhcURwJNk-49" value="6" style="text;strokeColor=none;align=center;fillColor=none;html=1;verticalAlign=middle;whiteSpace=wrap;rounded=0;" vertex="1" parent="1">
          <mxGeometry x="885" y="1947" width="60" height="30" as="geometry" />
        </mxCell>
        <mxCell id="NHuSI-1YI1ZrhcURwJNk-50" value="6" style="text;strokeColor=none;align=center;fillColor=none;html=1;verticalAlign=middle;whiteSpace=wrap;rounded=0;" vertex="1" parent="1">
          <mxGeometry x="981" y="1947" width="60" height="30" as="geometry" />
        </mxCell>
        <mxCell id="NHuSI-1YI1ZrhcURwJNk-51" value="7" style="text;strokeColor=none;align=center;fillColor=none;html=1;verticalAlign=middle;whiteSpace=wrap;rounded=0;" vertex="1" parent="1">
          <mxGeometry x="767" y="1456" width="60" height="30" as="geometry" />
        </mxCell>
        <mxCell id="NHuSI-1YI1ZrhcURwJNk-52" value="7" style="text;strokeColor=none;align=center;fillColor=none;html=1;verticalAlign=middle;whiteSpace=wrap;rounded=0;" vertex="1" parent="1">
          <mxGeometry x="863" y="1454" width="60" height="30" as="geometry" />
        </mxCell>
        <mxCell id="NHuSI-1YI1ZrhcURwJNk-53" value="A" style="text;strokeColor=none;align=center;fillColor=none;html=1;verticalAlign=middle;whiteSpace=wrap;rounded=0;" vertex="1" parent="1">
          <mxGeometry x="713" y="1537" width="60" height="30" as="geometry" />
        </mxCell>
        <mxCell id="NHuSI-1YI1ZrhcURwJNk-54" value="1, 2" style="text;strokeColor=none;align=center;fillColor=none;html=1;verticalAlign=middle;whiteSpace=wrap;rounded=0;" vertex="1" parent="1">
          <mxGeometry x="106" y="1727" width="60" height="30" as="geometry" />
        </mxCell>
        <mxCell id="NHuSI-1YI1ZrhcURwJNk-55" value="1, 2" style="text;strokeColor=none;align=center;fillColor=none;html=1;verticalAlign=middle;whiteSpace=wrap;rounded=0;" vertex="1" parent="1">
          <mxGeometry x="216" y="1727" width="60" height="30" as="geometry" />
        </mxCell>
        <mxCell id="NHuSI-1YI1ZrhcURwJNk-56" value="3" style="text;strokeColor=none;align=center;fillColor=none;html=1;verticalAlign=middle;whiteSpace=wrap;rounded=0;" vertex="1" parent="1">
          <mxGeometry x="478" y="1810" width="60" height="30" as="geometry" />
        </mxCell>
        <mxCell id="NHuSI-1YI1ZrhcURwJNk-57" value="4" style="text;strokeColor=none;align=center;fillColor=none;html=1;verticalAlign=middle;whiteSpace=wrap;rounded=0;" vertex="1" parent="1">
          <mxGeometry x="574" y="1810" width="60" height="30" as="geometry" />
        </mxCell>
        <mxCell id="NHuSI-1YI1ZrhcURwJNk-58" value="5" style="text;strokeColor=none;align=center;fillColor=none;html=1;verticalAlign=middle;whiteSpace=wrap;rounded=0;" vertex="1" parent="1">
          <mxGeometry x="805" y="1822" width="60" height="30" as="geometry" />
        </mxCell>
        <mxCell id="NHuSI-1YI1ZrhcURwJNk-59" value="6" style="text;strokeColor=none;align=center;fillColor=none;html=1;verticalAlign=middle;whiteSpace=wrap;rounded=0;" vertex="1" parent="1">
          <mxGeometry x="909" y="1822" width="60" height="30" as="geometry" />
        </mxCell>
        <mxCell id="NHuSI-1YI1ZrhcURwJNk-60" value="3, 5" style="text;strokeColor=none;align=center;fillColor=none;html=1;verticalAlign=middle;whiteSpace=wrap;rounded=0;" vertex="1" parent="1">
          <mxGeometry x="641" y="1727" width="60" height="30" as="geometry" />
        </mxCell>
        <mxCell id="NHuSI-1YI1ZrhcURwJNk-61" value="4, 6" style="text;strokeColor=none;align=center;fillColor=none;html=1;verticalAlign=middle;whiteSpace=wrap;rounded=0;" vertex="1" parent="1">
          <mxGeometry x="757" y="1590" width="60" height="30" as="geometry" />
        </mxCell>
        <mxCell id="NHuSI-1YI1ZrhcURwJNk-62" value="3, 5" style="text;strokeColor=none;align=center;fillColor=none;html=1;verticalAlign=middle;whiteSpace=wrap;rounded=0;" vertex="1" parent="1">
          <mxGeometry x="637" y="1590" width="60" height="30" as="geometry" />
        </mxCell>
        <mxCell id="NHuSI-1YI1ZrhcURwJNk-63" value="4, 6" style="text;strokeColor=none;align=center;fillColor=none;html=1;verticalAlign=middle;whiteSpace=wrap;rounded=0;" vertex="1" parent="1">
          <mxGeometry x="745" y="1727" width="60" height="30" as="geometry" />
        </mxCell>
        <mxCell id="NHuSI-1YI1ZrhcURwJNk-64" value="1, 2" style="text;strokeColor=none;align=center;fillColor=none;html=1;verticalAlign=middle;whiteSpace=wrap;rounded=0;" vertex="1" parent="1">
          <mxGeometry x="106" y="1580" width="60" height="30" as="geometry" />
        </mxCell>
        <mxCell id="NHuSI-1YI1ZrhcURwJNk-65" style="edgeStyle=orthogonalEdgeStyle;rounded=0;orthogonalLoop=1;jettySize=auto;html=1;exitX=0.5;exitY=1;exitDx=0;exitDy=0;entryX=0.5;entryY=1;entryDx=0;entryDy=0;fillColor=#f8cecc;strokeColor=#b85450;" edge="1" parent="1" source="NHuSI-1YI1ZrhcURwJNk-66" target="NHuSI-1YI1ZrhcURwJNk-62">
          <mxGeometry relative="1" as="geometry" />
        </mxCell>
        <mxCell id="NHuSI-1YI1ZrhcURwJNk-66" value="1, 2" style="text;strokeColor=none;align=center;fillColor=none;html=1;verticalAlign=middle;whiteSpace=wrap;rounded=0;" vertex="1" parent="1">
          <mxGeometry x="218" y="1582" width="60" height="30" as="geometry" />
        </mxCell>
        <mxCell id="NHuSI-1YI1ZrhcURwJNk-67" value="1, 2" style="text;strokeColor=none;align=center;fillColor=none;html=1;verticalAlign=middle;whiteSpace=wrap;rounded=0;" vertex="1" parent="1">
          <mxGeometry x="341" y="1429" width="60" height="30" as="geometry" />
        </mxCell>
        <mxCell id="NHuSI-1YI1ZrhcURwJNk-68" style="edgeStyle=orthogonalEdgeStyle;rounded=0;orthogonalLoop=1;jettySize=auto;html=1;exitX=0.5;exitY=1;exitDx=0;exitDy=0;entryX=0.5;entryY=1;entryDx=0;entryDy=0;fillColor=#f8cecc;strokeColor=#b85450;" edge="1" parent="1" source="NHuSI-1YI1ZrhcURwJNk-69" target="NHuSI-1YI1ZrhcURwJNk-51">
          <mxGeometry relative="1" as="geometry" />
        </mxCell>
        <mxCell id="NHuSI-1YI1ZrhcURwJNk-69" value="1, 2, 4, 6" style="text;strokeColor=none;align=center;fillColor=none;html=1;verticalAlign=middle;whiteSpace=wrap;rounded=0;" vertex="1" parent="1">
          <mxGeometry x="459" y="1429" width="60" height="30" as="geometry" />
        </mxCell>
        <mxCell id="NHuSI-1YI1ZrhcURwJNk-70" value="7" style="text;strokeColor=none;align=center;fillColor=none;html=1;verticalAlign=middle;whiteSpace=wrap;rounded=0;" vertex="1" parent="1">
          <mxGeometry x="672" y="1302" width="60" height="30" as="geometry" />
        </mxCell>
        <mxCell id="NHuSI-1YI1ZrhcURwJNk-71" value="1, 2" style="text;strokeColor=none;align=center;fillColor=none;html=1;verticalAlign=middle;whiteSpace=wrap;rounded=0;" vertex="1" parent="1">
          <mxGeometry x="566" y="1302" width="60" height="30" as="geometry" />
        </mxCell>
        <mxCell id="NHuSI-1YI1ZrhcURwJNk-72" value="Assets" style="childLayout=tableLayout;recursiveResize=0;shadow=1;fontColor=none;labelBackgroundColor=none;labelBorderColor=none;noLabel=1;fillColor=#050505;strokeColor=default;" vertex="1" parent="1">
          <mxGeometry x="21" y="2117" width="280" height="253" as="geometry" />
        </mxCell>
        <mxCell id="NHuSI-1YI1ZrhcURwJNk-73" style="shape=tableRow;horizontal=0;startSize=0;swimlaneHead=0;swimlaneBody=0;top=0;left=0;bottom=0;right=0;dropTarget=0;collapsible=0;recursiveResize=0;expand=0;fontStyle=0;strokeColor=inherit;fillColor=#ffffff;" vertex="1" parent="NHuSI-1YI1ZrhcURwJNk-72">
          <mxGeometry width="280" height="33" as="geometry" />
        </mxCell>
        <mxCell id="NHuSI-1YI1ZrhcURwJNk-74" value="No" style="connectable=0;recursiveResize=0;strokeColor=inherit;fillColor=#A7C942;align=center;fontStyle=1;fontColor=#FFFFFF;html=1;" vertex="1" parent="NHuSI-1YI1ZrhcURwJNk-73">
          <mxGeometry width="93" height="33" as="geometry">
            <mxRectangle width="93" height="33" as="alternateBounds" />
          </mxGeometry>
        </mxCell>
        <mxCell id="NHuSI-1YI1ZrhcURwJNk-75" value="Letra" style="connectable=0;recursiveResize=0;strokeColor=inherit;fillColor=#A7C942;align=center;fontStyle=1;fontColor=#FFFFFF;html=1;" vertex="1" parent="NHuSI-1YI1ZrhcURwJNk-73">
          <mxGeometry x="93" width="94" height="33" as="geometry">
            <mxRectangle width="94" height="33" as="alternateBounds" />
          </mxGeometry>
        </mxCell>
        <mxCell id="NHuSI-1YI1ZrhcURwJNk-76" value="Follow Pos" style="connectable=0;recursiveResize=0;strokeColor=inherit;fillColor=#A7C942;align=center;fontStyle=1;fontColor=#FFFFFF;html=1;" vertex="1" parent="NHuSI-1YI1ZrhcURwJNk-73">
          <mxGeometry x="187" width="93" height="33" as="geometry">
            <mxRectangle width="93" height="33" as="alternateBounds" />
          </mxGeometry>
        </mxCell>
        <mxCell id="NHuSI-1YI1ZrhcURwJNk-77" value="" style="shape=tableRow;horizontal=0;startSize=0;swimlaneHead=0;swimlaneBody=0;top=0;left=0;bottom=0;right=0;dropTarget=0;collapsible=0;recursiveResize=0;expand=0;fontStyle=0;strokeColor=inherit;fillColor=#ffffff;" vertex="1" parent="NHuSI-1YI1ZrhcURwJNk-72">
          <mxGeometry y="33" width="280" height="32" as="geometry" />
        </mxCell>
        <mxCell id="NHuSI-1YI1ZrhcURwJNk-78" value="1" style="connectable=0;recursiveResize=0;strokeColor=inherit;fillColor=inherit;align=center;whiteSpace=wrap;html=1;" vertex="1" parent="NHuSI-1YI1ZrhcURwJNk-77">
          <mxGeometry width="93" height="32" as="geometry">
            <mxRectangle width="93" height="32" as="alternateBounds" />
          </mxGeometry>
        </mxCell>
        <mxCell id="NHuSI-1YI1ZrhcURwJNk-79" value="a" style="connectable=0;recursiveResize=0;strokeColor=inherit;fillColor=inherit;align=center;whiteSpace=wrap;html=1;" vertex="1" parent="NHuSI-1YI1ZrhcURwJNk-77">
          <mxGeometry x="93" width="94" height="32" as="geometry">
            <mxRectangle width="94" height="32" as="alternateBounds" />
          </mxGeometry>
        </mxCell>
        <mxCell id="NHuSI-1YI1ZrhcURwJNk-80" value="3, 5, 7" style="connectable=0;recursiveResize=0;strokeColor=inherit;fillColor=inherit;align=center;whiteSpace=wrap;html=1;" vertex="1" parent="NHuSI-1YI1ZrhcURwJNk-77">
          <mxGeometry x="187" width="93" height="32" as="geometry">
            <mxRectangle width="93" height="32" as="alternateBounds" />
          </mxGeometry>
        </mxCell>
        <mxCell id="NHuSI-1YI1ZrhcURwJNk-81" value="" style="shape=tableRow;horizontal=0;startSize=0;swimlaneHead=0;swimlaneBody=0;top=0;left=0;bottom=0;right=0;dropTarget=0;collapsible=0;recursiveResize=0;expand=0;fontStyle=1;strokeColor=inherit;fillColor=#EAF2D3;" vertex="1" parent="NHuSI-1YI1ZrhcURwJNk-72">
          <mxGeometry y="65" width="280" height="31" as="geometry" />
        </mxCell>
        <mxCell id="NHuSI-1YI1ZrhcURwJNk-82" value="2" style="connectable=0;recursiveResize=0;strokeColor=inherit;fillColor=inherit;whiteSpace=wrap;html=1;" vertex="1" parent="NHuSI-1YI1ZrhcURwJNk-81">
          <mxGeometry width="93" height="31" as="geometry">
            <mxRectangle width="93" height="31" as="alternateBounds" />
          </mxGeometry>
        </mxCell>
        <mxCell id="NHuSI-1YI1ZrhcURwJNk-83" value="b" style="connectable=0;recursiveResize=0;strokeColor=inherit;fillColor=inherit;whiteSpace=wrap;html=1;" vertex="1" parent="NHuSI-1YI1ZrhcURwJNk-81">
          <mxGeometry x="93" width="94" height="31" as="geometry">
            <mxRectangle width="94" height="31" as="alternateBounds" />
          </mxGeometry>
        </mxCell>
        <mxCell id="NHuSI-1YI1ZrhcURwJNk-84" value="3, 5, 7" style="connectable=0;recursiveResize=0;strokeColor=inherit;fillColor=inherit;whiteSpace=wrap;html=1;" vertex="1" parent="NHuSI-1YI1ZrhcURwJNk-81">
          <mxGeometry x="187" width="93" height="31" as="geometry">
            <mxRectangle width="93" height="31" as="alternateBounds" />
          </mxGeometry>
        </mxCell>
        <mxCell id="NHuSI-1YI1ZrhcURwJNk-85" value="" style="shape=tableRow;horizontal=0;startSize=0;swimlaneHead=0;swimlaneBody=0;top=0;left=0;bottom=0;right=0;dropTarget=0;collapsible=0;recursiveResize=0;expand=0;fontStyle=0;strokeColor=inherit;fillColor=#ffffff;" vertex="1" parent="NHuSI-1YI1ZrhcURwJNk-72">
          <mxGeometry y="96" width="280" height="33" as="geometry" />
        </mxCell>
        <mxCell id="NHuSI-1YI1ZrhcURwJNk-86" value="3" style="connectable=0;recursiveResize=0;strokeColor=inherit;fillColor=inherit;fontStyle=0;align=center;whiteSpace=wrap;html=1;" vertex="1" parent="NHuSI-1YI1ZrhcURwJNk-85">
          <mxGeometry width="93" height="33" as="geometry">
            <mxRectangle width="93" height="33" as="alternateBounds" />
          </mxGeometry>
        </mxCell>
        <mxCell id="NHuSI-1YI1ZrhcURwJNk-87" value="b" style="connectable=0;recursiveResize=0;strokeColor=inherit;fillColor=inherit;fontStyle=0;align=center;whiteSpace=wrap;html=1;" vertex="1" parent="NHuSI-1YI1ZrhcURwJNk-85">
          <mxGeometry x="93" width="94" height="33" as="geometry">
            <mxRectangle width="94" height="33" as="alternateBounds" />
          </mxGeometry>
        </mxCell>
        <mxCell id="NHuSI-1YI1ZrhcURwJNk-88" value="4" style="connectable=0;recursiveResize=0;strokeColor=inherit;fillColor=inherit;fontStyle=0;align=center;whiteSpace=wrap;html=1;" vertex="1" parent="NHuSI-1YI1ZrhcURwJNk-85">
          <mxGeometry x="187" width="93" height="33" as="geometry">
            <mxRectangle width="93" height="33" as="alternateBounds" />
          </mxGeometry>
        </mxCell>
        <mxCell id="NHuSI-1YI1ZrhcURwJNk-89" value="" style="shape=tableRow;horizontal=0;startSize=0;swimlaneHead=0;swimlaneBody=0;top=0;left=0;bottom=0;right=0;dropTarget=0;collapsible=0;recursiveResize=0;expand=0;fontStyle=1;strokeColor=inherit;fillColor=#EAF2D3;" vertex="1" parent="NHuSI-1YI1ZrhcURwJNk-72">
          <mxGeometry y="129" width="280" height="31" as="geometry" />
        </mxCell>
        <mxCell id="NHuSI-1YI1ZrhcURwJNk-90" value="4" style="connectable=0;recursiveResize=0;strokeColor=inherit;fillColor=inherit;whiteSpace=wrap;html=1;" vertex="1" parent="NHuSI-1YI1ZrhcURwJNk-89">
          <mxGeometry width="93" height="31" as="geometry">
            <mxRectangle width="93" height="31" as="alternateBounds" />
          </mxGeometry>
        </mxCell>
        <mxCell id="NHuSI-1YI1ZrhcURwJNk-91" value="c" style="connectable=0;recursiveResize=0;strokeColor=inherit;fillColor=inherit;whiteSpace=wrap;html=1;" vertex="1" parent="NHuSI-1YI1ZrhcURwJNk-89">
          <mxGeometry x="93" width="94" height="31" as="geometry">
            <mxRectangle width="94" height="31" as="alternateBounds" />
          </mxGeometry>
        </mxCell>
        <mxCell id="NHuSI-1YI1ZrhcURwJNk-92" value="7" style="connectable=0;recursiveResize=0;strokeColor=inherit;fillColor=inherit;whiteSpace=wrap;html=1;" vertex="1" parent="NHuSI-1YI1ZrhcURwJNk-89">
          <mxGeometry x="187" width="93" height="31" as="geometry">
            <mxRectangle width="93" height="31" as="alternateBounds" />
          </mxGeometry>
        </mxCell>
        <mxCell id="NHuSI-1YI1ZrhcURwJNk-93" style="shape=tableRow;horizontal=0;startSize=0;swimlaneHead=0;swimlaneBody=0;top=0;left=0;bottom=0;right=0;dropTarget=0;collapsible=0;recursiveResize=0;expand=0;fontStyle=1;strokeColor=inherit;fillColor=#EAF2D3;" vertex="1" parent="NHuSI-1YI1ZrhcURwJNk-72">
          <mxGeometry y="160" width="280" height="31" as="geometry" />
        </mxCell>
        <mxCell id="NHuSI-1YI1ZrhcURwJNk-94" value="5" style="connectable=0;recursiveResize=0;strokeColor=inherit;fillColor=inherit;whiteSpace=wrap;html=1;" vertex="1" parent="NHuSI-1YI1ZrhcURwJNk-93">
          <mxGeometry width="93" height="31" as="geometry">
            <mxRectangle width="93" height="31" as="alternateBounds" />
          </mxGeometry>
        </mxCell>
        <mxCell id="NHuSI-1YI1ZrhcURwJNk-95" value="c" style="connectable=0;recursiveResize=0;strokeColor=inherit;fillColor=inherit;whiteSpace=wrap;html=1;" vertex="1" parent="NHuSI-1YI1ZrhcURwJNk-93">
          <mxGeometry x="93" width="94" height="31" as="geometry">
            <mxRectangle width="94" height="31" as="alternateBounds" />
          </mxGeometry>
        </mxCell>
        <mxCell id="NHuSI-1YI1ZrhcURwJNk-96" value="6" style="connectable=0;recursiveResize=0;strokeColor=inherit;fillColor=inherit;whiteSpace=wrap;html=1;" vertex="1" parent="NHuSI-1YI1ZrhcURwJNk-93">
          <mxGeometry x="187" width="93" height="31" as="geometry">
            <mxRectangle width="93" height="31" as="alternateBounds" />
          </mxGeometry>
        </mxCell>
        <mxCell id="NHuSI-1YI1ZrhcURwJNk-97" style="shape=tableRow;horizontal=0;startSize=0;swimlaneHead=0;swimlaneBody=0;top=0;left=0;bottom=0;right=0;dropTarget=0;collapsible=0;recursiveResize=0;expand=0;fontStyle=1;strokeColor=inherit;fillColor=#EAF2D3;" vertex="1" parent="NHuSI-1YI1ZrhcURwJNk-72">
          <mxGeometry y="191" width="280" height="31" as="geometry" />
        </mxCell>
        <mxCell id="NHuSI-1YI1ZrhcURwJNk-98" value="6" style="connectable=0;recursiveResize=0;strokeColor=inherit;fillColor=inherit;whiteSpace=wrap;html=1;" vertex="1" parent="NHuSI-1YI1ZrhcURwJNk-97">
          <mxGeometry width="93" height="31" as="geometry">
            <mxRectangle width="93" height="31" as="alternateBounds" />
          </mxGeometry>
        </mxCell>
        <mxCell id="NHuSI-1YI1ZrhcURwJNk-99" value="d" style="connectable=0;recursiveResize=0;strokeColor=inherit;fillColor=inherit;whiteSpace=wrap;html=1;" vertex="1" parent="NHuSI-1YI1ZrhcURwJNk-97">
          <mxGeometry x="93" width="94" height="31" as="geometry">
            <mxRectangle width="94" height="31" as="alternateBounds" />
          </mxGeometry>
        </mxCell>
        <mxCell id="NHuSI-1YI1ZrhcURwJNk-100" value="7" style="connectable=0;recursiveResize=0;strokeColor=inherit;fillColor=inherit;whiteSpace=wrap;html=1;" vertex="1" parent="NHuSI-1YI1ZrhcURwJNk-97">
          <mxGeometry x="187" width="93" height="31" as="geometry">
            <mxRectangle width="93" height="31" as="alternateBounds" />
          </mxGeometry>
        </mxCell>
        <mxCell id="NHuSI-1YI1ZrhcURwJNk-101" style="shape=tableRow;horizontal=0;startSize=0;swimlaneHead=0;swimlaneBody=0;top=0;left=0;bottom=0;right=0;dropTarget=0;collapsible=0;recursiveResize=0;expand=0;fontStyle=1;strokeColor=inherit;fillColor=#EAF2D3;" vertex="1" parent="NHuSI-1YI1ZrhcURwJNk-72">
          <mxGeometry y="222" width="280" height="31" as="geometry" />
        </mxCell>
        <mxCell id="NHuSI-1YI1ZrhcURwJNk-102" value="7" style="connectable=0;recursiveResize=0;strokeColor=inherit;fillColor=inherit;whiteSpace=wrap;html=1;" vertex="1" parent="NHuSI-1YI1ZrhcURwJNk-101">
          <mxGeometry width="93" height="31" as="geometry">
            <mxRectangle width="93" height="31" as="alternateBounds" />
          </mxGeometry>
        </mxCell>
        <mxCell id="NHuSI-1YI1ZrhcURwJNk-103" value="#" style="connectable=0;recursiveResize=0;strokeColor=inherit;fillColor=inherit;whiteSpace=wrap;html=1;" vertex="1" parent="NHuSI-1YI1ZrhcURwJNk-101">
          <mxGeometry x="93" width="94" height="31" as="geometry">
            <mxRectangle width="94" height="31" as="alternateBounds" />
          </mxGeometry>
        </mxCell>
        <mxCell id="NHuSI-1YI1ZrhcURwJNk-104" style="connectable=0;recursiveResize=0;strokeColor=inherit;fillColor=inherit;whiteSpace=wrap;html=1;" vertex="1" parent="NHuSI-1YI1ZrhcURwJNk-101">
          <mxGeometry x="187" width="93" height="31" as="geometry">
            <mxRectangle width="93" height="31" as="alternateBounds" />
          </mxGeometry>
        </mxCell>
        <mxCell id="NHuSI-1YI1ZrhcURwJNk-105" value="Tabla Follow Pos" style="text;html=1;align=center;verticalAlign=middle;resizable=0;points=[];autosize=1;strokeColor=none;fillColor=none;" vertex="1" parent="1">
          <mxGeometry x="11" y="2078" width="109" height="26" as="geometry" />
        </mxCell>
        <mxCell id="NHuSI-1YI1ZrhcURwJNk-106" value="Tabla Trancisiones" style="shape=table;startSize=30;container=1;collapsible=0;childLayout=tableLayout;strokeColor=default;fontSize=16;" vertex="1" parent="1">
          <mxGeometry x="349" y="2083" width="445" height="378" as="geometry" />
        </mxCell>
        <mxCell id="NHuSI-1YI1ZrhcURwJNk-107" value="" style="shape=tableRow;horizontal=0;startSize=0;swimlaneHead=0;swimlaneBody=0;strokeColor=inherit;top=0;left=0;bottom=0;right=0;collapsible=0;dropTarget=0;fillColor=none;points=[[0,0.5],[1,0.5]];portConstraint=eastwest;fontSize=16;" vertex="1" parent="NHuSI-1YI1ZrhcURwJNk-106">
          <mxGeometry y="30" width="445" height="58" as="geometry" />
        </mxCell>
        <mxCell id="NHuSI-1YI1ZrhcURwJNk-108" value="" style="shape=partialRectangle;html=1;whiteSpace=wrap;connectable=0;strokeColor=inherit;overflow=hidden;fillColor=none;top=0;left=0;bottom=0;right=0;pointerEvents=1;fontSize=16;" vertex="1" parent="NHuSI-1YI1ZrhcURwJNk-107">
          <mxGeometry width="74" height="58" as="geometry">
            <mxRectangle width="74" height="58" as="alternateBounds" />
          </mxGeometry>
        </mxCell>
        <mxCell id="NHuSI-1YI1ZrhcURwJNk-109" value="a" style="shape=partialRectangle;html=1;whiteSpace=wrap;connectable=0;strokeColor=inherit;overflow=hidden;fillColor=none;top=0;left=0;bottom=0;right=0;pointerEvents=1;fontSize=16;" vertex="1" parent="NHuSI-1YI1ZrhcURwJNk-107">
          <mxGeometry x="74" width="75" height="58" as="geometry">
            <mxRectangle width="75" height="58" as="alternateBounds" />
          </mxGeometry>
        </mxCell>
        <mxCell id="NHuSI-1YI1ZrhcURwJNk-110" value="b" style="shape=partialRectangle;html=1;whiteSpace=wrap;connectable=0;strokeColor=inherit;overflow=hidden;fillColor=none;top=0;left=0;bottom=0;right=0;pointerEvents=1;fontSize=16;" vertex="1" parent="NHuSI-1YI1ZrhcURwJNk-107">
          <mxGeometry x="149" width="74" height="58" as="geometry">
            <mxRectangle width="74" height="58" as="alternateBounds" />
          </mxGeometry>
        </mxCell>
        <mxCell id="NHuSI-1YI1ZrhcURwJNk-111" value="c" style="shape=partialRectangle;html=1;whiteSpace=wrap;connectable=0;strokeColor=inherit;overflow=hidden;fillColor=none;top=0;left=0;bottom=0;right=0;pointerEvents=1;fontSize=16;" vertex="1" parent="NHuSI-1YI1ZrhcURwJNk-107">
          <mxGeometry x="223" width="74" height="58" as="geometry">
            <mxRectangle width="74" height="58" as="alternateBounds" />
          </mxGeometry>
        </mxCell>
        <mxCell id="NHuSI-1YI1ZrhcURwJNk-112" value="d" style="shape=partialRectangle;html=1;whiteSpace=wrap;connectable=0;strokeColor=inherit;overflow=hidden;fillColor=none;top=0;left=0;bottom=0;right=0;pointerEvents=1;fontSize=16;" vertex="1" parent="NHuSI-1YI1ZrhcURwJNk-107">
          <mxGeometry x="297" width="74" height="58" as="geometry">
            <mxRectangle width="74" height="58" as="alternateBounds" />
          </mxGeometry>
        </mxCell>
        <mxCell id="NHuSI-1YI1ZrhcURwJNk-113" value="ACE" style="shape=partialRectangle;html=1;whiteSpace=wrap;connectable=0;strokeColor=inherit;overflow=hidden;fillColor=none;top=0;left=0;bottom=0;right=0;pointerEvents=1;fontSize=16;" vertex="1" parent="NHuSI-1YI1ZrhcURwJNk-107">
          <mxGeometry x="371" width="74" height="58" as="geometry">
            <mxRectangle width="74" height="58" as="alternateBounds" />
          </mxGeometry>
        </mxCell>
        <mxCell id="NHuSI-1YI1ZrhcURwJNk-114" value="" style="shape=tableRow;horizontal=0;startSize=0;swimlaneHead=0;swimlaneBody=0;strokeColor=inherit;top=0;left=0;bottom=0;right=0;collapsible=0;dropTarget=0;fillColor=none;points=[[0,0.5],[1,0.5]];portConstraint=eastwest;fontSize=16;" vertex="1" parent="NHuSI-1YI1ZrhcURwJNk-106">
          <mxGeometry y="88" width="445" height="57" as="geometry" />
        </mxCell>
        <mxCell id="NHuSI-1YI1ZrhcURwJNk-115" value="x0 = {1,2}" style="shape=partialRectangle;html=1;whiteSpace=wrap;connectable=0;strokeColor=inherit;overflow=hidden;fillColor=none;top=0;left=0;bottom=0;right=0;pointerEvents=1;fontSize=16;" vertex="1" parent="NHuSI-1YI1ZrhcURwJNk-114">
          <mxGeometry width="74" height="57" as="geometry">
            <mxRectangle width="74" height="57" as="alternateBounds" />
          </mxGeometry>
        </mxCell>
        <mxCell id="NHuSI-1YI1ZrhcURwJNk-116" value="x1" style="shape=partialRectangle;html=1;whiteSpace=wrap;connectable=0;strokeColor=inherit;overflow=hidden;fillColor=none;top=0;left=0;bottom=0;right=0;pointerEvents=1;fontSize=16;" vertex="1" parent="NHuSI-1YI1ZrhcURwJNk-114">
          <mxGeometry x="74" width="75" height="57" as="geometry">
            <mxRectangle width="75" height="57" as="alternateBounds" />
          </mxGeometry>
        </mxCell>
        <mxCell id="NHuSI-1YI1ZrhcURwJNk-117" value="x1" style="shape=partialRectangle;html=1;whiteSpace=wrap;connectable=0;strokeColor=inherit;overflow=hidden;fillColor=none;top=0;left=0;bottom=0;right=0;pointerEvents=1;fontSize=16;" vertex="1" parent="NHuSI-1YI1ZrhcURwJNk-114">
          <mxGeometry x="149" width="74" height="57" as="geometry">
            <mxRectangle width="74" height="57" as="alternateBounds" />
          </mxGeometry>
        </mxCell>
        <mxCell id="NHuSI-1YI1ZrhcURwJNk-118" style="shape=partialRectangle;html=1;whiteSpace=wrap;connectable=0;strokeColor=inherit;overflow=hidden;fillColor=none;top=0;left=0;bottom=0;right=0;pointerEvents=1;fontSize=16;" vertex="1" parent="NHuSI-1YI1ZrhcURwJNk-114">
          <mxGeometry x="223" width="74" height="57" as="geometry">
            <mxRectangle width="74" height="57" as="alternateBounds" />
          </mxGeometry>
        </mxCell>
        <mxCell id="NHuSI-1YI1ZrhcURwJNk-119" style="shape=partialRectangle;html=1;whiteSpace=wrap;connectable=0;strokeColor=inherit;overflow=hidden;fillColor=none;top=0;left=0;bottom=0;right=0;pointerEvents=1;fontSize=16;" vertex="1" parent="NHuSI-1YI1ZrhcURwJNk-114">
          <mxGeometry x="297" width="74" height="57" as="geometry">
            <mxRectangle width="74" height="57" as="alternateBounds" />
          </mxGeometry>
        </mxCell>
        <mxCell id="NHuSI-1YI1ZrhcURwJNk-120" style="shape=partialRectangle;html=1;whiteSpace=wrap;connectable=0;strokeColor=inherit;overflow=hidden;fillColor=none;top=0;left=0;bottom=0;right=0;pointerEvents=1;fontSize=16;" vertex="1" parent="NHuSI-1YI1ZrhcURwJNk-114">
          <mxGeometry x="371" width="74" height="57" as="geometry">
            <mxRectangle width="74" height="57" as="alternateBounds" />
          </mxGeometry>
        </mxCell>
        <mxCell id="NHuSI-1YI1ZrhcURwJNk-121" value="" style="shape=tableRow;horizontal=0;startSize=0;swimlaneHead=0;swimlaneBody=0;strokeColor=inherit;top=0;left=0;bottom=0;right=0;collapsible=0;dropTarget=0;fillColor=none;points=[[0,0.5],[1,0.5]];portConstraint=eastwest;fontSize=16;" vertex="1" parent="NHuSI-1YI1ZrhcURwJNk-106">
          <mxGeometry y="145" width="445" height="59" as="geometry" />
        </mxCell>
        <mxCell id="NHuSI-1YI1ZrhcURwJNk-122" value="x1 = {3,5,7}" style="shape=partialRectangle;html=1;whiteSpace=wrap;connectable=0;strokeColor=inherit;overflow=hidden;fillColor=none;top=0;left=0;bottom=0;right=0;pointerEvents=1;fontSize=16;" vertex="1" parent="NHuSI-1YI1ZrhcURwJNk-121">
          <mxGeometry width="74" height="59" as="geometry">
            <mxRectangle width="74" height="59" as="alternateBounds" />
          </mxGeometry>
        </mxCell>
        <mxCell id="NHuSI-1YI1ZrhcURwJNk-123" value="" style="shape=partialRectangle;html=1;whiteSpace=wrap;connectable=0;strokeColor=inherit;overflow=hidden;fillColor=none;top=0;left=0;bottom=0;right=0;pointerEvents=1;fontSize=16;" vertex="1" parent="NHuSI-1YI1ZrhcURwJNk-121">
          <mxGeometry x="74" width="75" height="59" as="geometry">
            <mxRectangle width="75" height="59" as="alternateBounds" />
          </mxGeometry>
        </mxCell>
        <mxCell id="NHuSI-1YI1ZrhcURwJNk-124" value="x2" style="shape=partialRectangle;html=1;whiteSpace=wrap;connectable=0;strokeColor=inherit;overflow=hidden;fillColor=none;top=0;left=0;bottom=0;right=0;pointerEvents=1;fontSize=16;" vertex="1" parent="NHuSI-1YI1ZrhcURwJNk-121">
          <mxGeometry x="149" width="74" height="59" as="geometry">
            <mxRectangle width="74" height="59" as="alternateBounds" />
          </mxGeometry>
        </mxCell>
        <mxCell id="NHuSI-1YI1ZrhcURwJNk-125" value="x3" style="shape=partialRectangle;html=1;whiteSpace=wrap;connectable=0;strokeColor=inherit;overflow=hidden;fillColor=none;top=0;left=0;bottom=0;right=0;pointerEvents=1;fontSize=16;" vertex="1" parent="NHuSI-1YI1ZrhcURwJNk-121">
          <mxGeometry x="223" width="74" height="59" as="geometry">
            <mxRectangle width="74" height="59" as="alternateBounds" />
          </mxGeometry>
        </mxCell>
        <mxCell id="NHuSI-1YI1ZrhcURwJNk-126" style="shape=partialRectangle;html=1;whiteSpace=wrap;connectable=0;strokeColor=inherit;overflow=hidden;fillColor=none;top=0;left=0;bottom=0;right=0;pointerEvents=1;fontSize=16;" vertex="1" parent="NHuSI-1YI1ZrhcURwJNk-121">
          <mxGeometry x="297" width="74" height="59" as="geometry">
            <mxRectangle width="74" height="59" as="alternateBounds" />
          </mxGeometry>
        </mxCell>
        <mxCell id="NHuSI-1YI1ZrhcURwJNk-127" value="si" style="shape=partialRectangle;html=1;whiteSpace=wrap;connectable=0;strokeColor=inherit;overflow=hidden;fillColor=none;top=0;left=0;bottom=0;right=0;pointerEvents=1;fontSize=16;" vertex="1" parent="NHuSI-1YI1ZrhcURwJNk-121">
          <mxGeometry x="371" width="74" height="59" as="geometry">
            <mxRectangle width="74" height="59" as="alternateBounds" />
          </mxGeometry>
        </mxCell>
        <mxCell id="NHuSI-1YI1ZrhcURwJNk-128" style="shape=tableRow;horizontal=0;startSize=0;swimlaneHead=0;swimlaneBody=0;strokeColor=inherit;top=0;left=0;bottom=0;right=0;collapsible=0;dropTarget=0;fillColor=none;points=[[0,0.5],[1,0.5]];portConstraint=eastwest;fontSize=16;" vertex="1" parent="NHuSI-1YI1ZrhcURwJNk-106">
          <mxGeometry y="204" width="445" height="58" as="geometry" />
        </mxCell>
        <mxCell id="NHuSI-1YI1ZrhcURwJNk-129" value="x2 = {4}" style="shape=partialRectangle;html=1;whiteSpace=wrap;connectable=0;strokeColor=inherit;overflow=hidden;fillColor=none;top=0;left=0;bottom=0;right=0;pointerEvents=1;fontSize=16;" vertex="1" parent="NHuSI-1YI1ZrhcURwJNk-128">
          <mxGeometry width="74" height="58" as="geometry">
            <mxRectangle width="74" height="58" as="alternateBounds" />
          </mxGeometry>
        </mxCell>
        <mxCell id="NHuSI-1YI1ZrhcURwJNk-130" style="shape=partialRectangle;html=1;whiteSpace=wrap;connectable=0;strokeColor=inherit;overflow=hidden;fillColor=none;top=0;left=0;bottom=0;right=0;pointerEvents=1;fontSize=16;" vertex="1" parent="NHuSI-1YI1ZrhcURwJNk-128">
          <mxGeometry x="74" width="75" height="58" as="geometry">
            <mxRectangle width="75" height="58" as="alternateBounds" />
          </mxGeometry>
        </mxCell>
        <mxCell id="NHuSI-1YI1ZrhcURwJNk-131" style="shape=partialRectangle;html=1;whiteSpace=wrap;connectable=0;strokeColor=inherit;overflow=hidden;fillColor=none;top=0;left=0;bottom=0;right=0;pointerEvents=1;fontSize=16;" vertex="1" parent="NHuSI-1YI1ZrhcURwJNk-128">
          <mxGeometry x="149" width="74" height="58" as="geometry">
            <mxRectangle width="74" height="58" as="alternateBounds" />
          </mxGeometry>
        </mxCell>
        <mxCell id="NHuSI-1YI1ZrhcURwJNk-132" value="x4" style="shape=partialRectangle;html=1;whiteSpace=wrap;connectable=0;strokeColor=inherit;overflow=hidden;fillColor=none;top=0;left=0;bottom=0;right=0;pointerEvents=1;fontSize=16;" vertex="1" parent="NHuSI-1YI1ZrhcURwJNk-128">
          <mxGeometry x="223" width="74" height="58" as="geometry">
            <mxRectangle width="74" height="58" as="alternateBounds" />
          </mxGeometry>
        </mxCell>
        <mxCell id="NHuSI-1YI1ZrhcURwJNk-133" style="shape=partialRectangle;html=1;whiteSpace=wrap;connectable=0;strokeColor=inherit;overflow=hidden;fillColor=none;top=0;left=0;bottom=0;right=0;pointerEvents=1;fontSize=16;" vertex="1" parent="NHuSI-1YI1ZrhcURwJNk-128">
          <mxGeometry x="297" width="74" height="58" as="geometry">
            <mxRectangle width="74" height="58" as="alternateBounds" />
          </mxGeometry>
        </mxCell>
        <mxCell id="NHuSI-1YI1ZrhcURwJNk-134" style="shape=partialRectangle;html=1;whiteSpace=wrap;connectable=0;strokeColor=inherit;overflow=hidden;fillColor=none;top=0;left=0;bottom=0;right=0;pointerEvents=1;fontSize=16;" vertex="1" parent="NHuSI-1YI1ZrhcURwJNk-128">
          <mxGeometry x="371" width="74" height="58" as="geometry">
            <mxRectangle width="74" height="58" as="alternateBounds" />
          </mxGeometry>
        </mxCell>
        <mxCell id="NHuSI-1YI1ZrhcURwJNk-135" style="shape=tableRow;horizontal=0;startSize=0;swimlaneHead=0;swimlaneBody=0;strokeColor=inherit;top=0;left=0;bottom=0;right=0;collapsible=0;dropTarget=0;fillColor=none;points=[[0,0.5],[1,0.5]];portConstraint=eastwest;fontSize=16;" vertex="1" parent="NHuSI-1YI1ZrhcURwJNk-106">
          <mxGeometry y="262" width="445" height="58" as="geometry" />
        </mxCell>
        <mxCell id="NHuSI-1YI1ZrhcURwJNk-136" value="x3 = {6}" style="shape=partialRectangle;html=1;whiteSpace=wrap;connectable=0;strokeColor=inherit;overflow=hidden;fillColor=none;top=0;left=0;bottom=0;right=0;pointerEvents=1;fontSize=16;" vertex="1" parent="NHuSI-1YI1ZrhcURwJNk-135">
          <mxGeometry width="74" height="58" as="geometry">
            <mxRectangle width="74" height="58" as="alternateBounds" />
          </mxGeometry>
        </mxCell>
        <mxCell id="NHuSI-1YI1ZrhcURwJNk-137" style="shape=partialRectangle;html=1;whiteSpace=wrap;connectable=0;strokeColor=inherit;overflow=hidden;fillColor=none;top=0;left=0;bottom=0;right=0;pointerEvents=1;fontSize=16;" vertex="1" parent="NHuSI-1YI1ZrhcURwJNk-135">
          <mxGeometry x="74" width="75" height="58" as="geometry">
            <mxRectangle width="75" height="58" as="alternateBounds" />
          </mxGeometry>
        </mxCell>
        <mxCell id="NHuSI-1YI1ZrhcURwJNk-138" style="shape=partialRectangle;html=1;whiteSpace=wrap;connectable=0;strokeColor=inherit;overflow=hidden;fillColor=none;top=0;left=0;bottom=0;right=0;pointerEvents=1;fontSize=16;" vertex="1" parent="NHuSI-1YI1ZrhcURwJNk-135">
          <mxGeometry x="149" width="74" height="58" as="geometry">
            <mxRectangle width="74" height="58" as="alternateBounds" />
          </mxGeometry>
        </mxCell>
        <mxCell id="NHuSI-1YI1ZrhcURwJNk-139" value="x4" style="shape=partialRectangle;html=1;whiteSpace=wrap;connectable=0;strokeColor=inherit;overflow=hidden;fillColor=none;top=0;left=0;bottom=0;right=0;pointerEvents=1;fontSize=16;" vertex="1" parent="NHuSI-1YI1ZrhcURwJNk-135">
          <mxGeometry x="223" width="74" height="58" as="geometry">
            <mxRectangle width="74" height="58" as="alternateBounds" />
          </mxGeometry>
        </mxCell>
        <mxCell id="NHuSI-1YI1ZrhcURwJNk-140" style="shape=partialRectangle;html=1;whiteSpace=wrap;connectable=0;strokeColor=inherit;overflow=hidden;fillColor=none;top=0;left=0;bottom=0;right=0;pointerEvents=1;fontSize=16;" vertex="1" parent="NHuSI-1YI1ZrhcURwJNk-135">
          <mxGeometry x="297" width="74" height="58" as="geometry">
            <mxRectangle width="74" height="58" as="alternateBounds" />
          </mxGeometry>
        </mxCell>
        <mxCell id="NHuSI-1YI1ZrhcURwJNk-141" style="shape=partialRectangle;html=1;whiteSpace=wrap;connectable=0;strokeColor=inherit;overflow=hidden;fillColor=none;top=0;left=0;bottom=0;right=0;pointerEvents=1;fontSize=16;" vertex="1" parent="NHuSI-1YI1ZrhcURwJNk-135">
          <mxGeometry x="371" width="74" height="58" as="geometry">
            <mxRectangle width="74" height="58" as="alternateBounds" />
          </mxGeometry>
        </mxCell>
        <mxCell id="NHuSI-1YI1ZrhcURwJNk-142" style="shape=tableRow;horizontal=0;startSize=0;swimlaneHead=0;swimlaneBody=0;strokeColor=inherit;top=0;left=0;bottom=0;right=0;collapsible=0;dropTarget=0;fillColor=none;points=[[0,0.5],[1,0.5]];portConstraint=eastwest;fontSize=16;" vertex="1" parent="NHuSI-1YI1ZrhcURwJNk-106">
          <mxGeometry y="320" width="445" height="58" as="geometry" />
        </mxCell>
        <mxCell id="NHuSI-1YI1ZrhcURwJNk-143" value="x4 = {7}" style="shape=partialRectangle;html=1;whiteSpace=wrap;connectable=0;strokeColor=inherit;overflow=hidden;fillColor=none;top=0;left=0;bottom=0;right=0;pointerEvents=1;fontSize=16;" vertex="1" parent="NHuSI-1YI1ZrhcURwJNk-142">
          <mxGeometry width="74" height="58" as="geometry">
            <mxRectangle width="74" height="58" as="alternateBounds" />
          </mxGeometry>
        </mxCell>
        <mxCell id="NHuSI-1YI1ZrhcURwJNk-144" style="shape=partialRectangle;html=1;whiteSpace=wrap;connectable=0;strokeColor=inherit;overflow=hidden;fillColor=none;top=0;left=0;bottom=0;right=0;pointerEvents=1;fontSize=16;" vertex="1" parent="NHuSI-1YI1ZrhcURwJNk-142">
          <mxGeometry x="74" width="75" height="58" as="geometry">
            <mxRectangle width="75" height="58" as="alternateBounds" />
          </mxGeometry>
        </mxCell>
        <mxCell id="NHuSI-1YI1ZrhcURwJNk-145" style="shape=partialRectangle;html=1;whiteSpace=wrap;connectable=0;strokeColor=inherit;overflow=hidden;fillColor=none;top=0;left=0;bottom=0;right=0;pointerEvents=1;fontSize=16;" vertex="1" parent="NHuSI-1YI1ZrhcURwJNk-142">
          <mxGeometry x="149" width="74" height="58" as="geometry">
            <mxRectangle width="74" height="58" as="alternateBounds" />
          </mxGeometry>
        </mxCell>
        <mxCell id="NHuSI-1YI1ZrhcURwJNk-146" style="shape=partialRectangle;html=1;whiteSpace=wrap;connectable=0;strokeColor=inherit;overflow=hidden;fillColor=none;top=0;left=0;bottom=0;right=0;pointerEvents=1;fontSize=16;" vertex="1" parent="NHuSI-1YI1ZrhcURwJNk-142">
          <mxGeometry x="223" width="74" height="58" as="geometry">
            <mxRectangle width="74" height="58" as="alternateBounds" />
          </mxGeometry>
        </mxCell>
        <mxCell id="NHuSI-1YI1ZrhcURwJNk-147" style="shape=partialRectangle;html=1;whiteSpace=wrap;connectable=0;strokeColor=inherit;overflow=hidden;fillColor=none;top=0;left=0;bottom=0;right=0;pointerEvents=1;fontSize=16;" vertex="1" parent="NHuSI-1YI1ZrhcURwJNk-142">
          <mxGeometry x="297" width="74" height="58" as="geometry">
            <mxRectangle width="74" height="58" as="alternateBounds" />
          </mxGeometry>
        </mxCell>
        <mxCell id="NHuSI-1YI1ZrhcURwJNk-148" style="shape=partialRectangle;html=1;whiteSpace=wrap;connectable=0;strokeColor=inherit;overflow=hidden;fillColor=none;top=0;left=0;bottom=0;right=0;pointerEvents=1;fontSize=16;" vertex="1" parent="NHuSI-1YI1ZrhcURwJNk-142">
          <mxGeometry x="371" width="74" height="58" as="geometry">
            <mxRectangle width="74" height="58" as="alternateBounds" />
          </mxGeometry>
        </mxCell>
      </root>
    </mxGraphModel>
  </diagram>
</mxfile>
